<svg id="Layer_1" data-name="Layer 1" xmlns="http://www.w3.org/2000/svg" xmlns:xlink="http://www.w3.org/1999/xlink" viewBox="0 0 467 467"><defs><style>.cls-1{fill:url(#linear-gradient);}.cls-2{fill:#fff;}.cls-3{opacity:0.35;}.cls-4{fill:#371a45;}.cls-5{fill:#22a7f0;}.cls-6{opacity:0.7;}.cls-7{fill:#ffb200;}.cls-8{fill:#d66b09;}.cls-9{fill:#ffc536;}.cls-10{fill:#ffec90;}.cls-11{opacity:0.41;}.cls-12{opacity:0.5;}.cls-13{fill:#111a28;}</style><linearGradient id="linear-gradient" x1="16.55" y1="233.5" x2="450.45" y2="233.5" gradientUnits="userSpaceOnUse"><stop offset="0" stop-color="#02024f"/><stop offset="1" stop-color="#112033"/></linearGradient></defs><path class="cls-1" d="M450.44,321c.3,24.71-3.87,48.5-17.67,69.38-25.86,39.12-62.08,61.18-109.49,62.71-21.48.7-41.63-5.73-60.67-15.21-17.57-8.74-35-17.78-52.11-27.39-27-15.15-55.32-27.31-83.63-39.62-23.32-10.13-45.75-21.86-64.09-40C36.62,304.87,21.26,273.48,17.21,237c-2.76-24.9,3.26-48.42,14.68-70.62S59,124.73,76,106.54c25.69-27.37,53.6-52.1,86.05-71.31C179.65,24.82,198.21,17,218.74,14.61c27.93-3.28,52.89,5.21,76.23,19.49,28.86,17.67,52.41,41.21,73.43,67.5,32,40.08,52.88,85.76,67.54,134.54C446.54,271.41,450.4,294.34,450.44,321Z"/><path class="cls-2" d="M231.37,196.13c-7.66,16-15.28,37-19.3,40.26A38.34,38.34,0,0,1,186.66,245s-6.07-11.47-10.36-9.42c-2,.94-4.08,4-.51,10.53a5,5,0,0,0,.59.76A21.34,21.34,0,0,1,164,241c-6.46-6.16-8-1.39-8.45,1.51s-1.5,18.93,9.48,25.91,36.87,10.74,56.66-9.21l14.51-20.9Z"/><path class="cls-2" d="M334,285c-9.4,11.86-33.31,7.3-33.31,7.3l.85-61.84.27-19.27,0-1.77.2-14.62a88.21,88.21,0,0,1,17.82,2.89c1.47.42,3,.89,4.39,1.44.6.23,1.2.47,1.78.72,5,2.15,9.17,5.2,10.69,9.52C342,224.32,341.71,275.22,334,285Z"/><g class="cls-3"><path class="cls-4" d="M340.28,243.24c0,17.79-2,36.25-6.3,41.72-9.4,11.86-33.31,7.3-33.31,7.3l1-21.43s23.91,4.55,33.31-7.3C337.55,260.32,339.28,252.63,340.28,243.24Z"/></g><path class="cls-4" d="M311,294.92a63.1,63.1,0,0,1-10.71-.89,1.8,1.8,0,0,1,.68-3.53,60.77,60.77,0,0,0,10.08.82c7.27,0,16.62-1.34,21.49-7.47,1.12-1.42,2.74-4.82,4.06-13a166.16,166.16,0,0,0,1.78-21.79c.39-16.5-1-32.24-3.41-39.15-2.15-6.09-10.85-9.4-17.78-11.1A88.09,88.09,0,0,0,302,196.55a1.79,1.79,0,1,1,.15-3.58A90.43,90.43,0,0,1,318,195.32a47.11,47.11,0,0,1,12.17,4.58c4.22,2.41,7,5.39,8.19,8.83,1.66,4.71,2.54,12,3,17.22a223.42,223.42,0,0,1,.64,23.21c-.21,8.85-1.27,30.17-6.62,36.92a21.45,21.45,0,0,1-10,6.72,41.48,41.48,0,0,1-11.51,2.05C312.91,294.9,312,294.92,311,294.92Z"/><path class="cls-2" d="M338.4,250.69l-16.36,1a3.21,3.21,0,0,0-3,2.57c-1,5.26-2.81,17.52,2.25,21.67,4.2,3.43,11.12,3.15,15.22-.21,4.59-3.76,5.23-15.8,5.26-21.77A3.21,3.21,0,0,0,338.4,250.69Z"/><g class="cls-3"><path class="cls-4" d="M319.07,254.23c-1,5.25-2.81,17.51,2.25,21.65,4.2,3.44,11.12,3.16,15.22-.2,2.83-2.31,4.16-7.76,4.77-13a13.7,13.7,0,0,1-3.43,6.09c-8.37,7.87-14.36-1.67-14.36-1.67s-1.11,2.28-2,2.39c-3.57.49-2.65-10.63-2-16.37A3.13,3.13,0,0,0,319.07,254.23Z"/></g><path class="cls-4" d="M328.7,280.13a13.48,13.48,0,0,1-8.52-2.86c-2.62-2.14-4-6.1-4.06-11.77a57.52,57.52,0,0,1,1.19-11.62,5,5,0,0,1,4.62-4l16.36-1a5,5,0,0,1,5.3,5,75.1,75.1,0,0,1-.94,12c-1,5.55-2.6,9.19-5,11.14A14.25,14.25,0,0,1,328.7,280.13Zm9.8-27.65-16.36,1a1.4,1.4,0,0,0-1.31,1.13,54.15,54.15,0,0,0-1.13,10.88c.06,4.49,1,7.62,2.75,9.05,3.45,2.82,9.38,2.72,13-.21,2.83-2.32,4.55-9.94,4.6-20.39a1.42,1.42,0,0,0-.45-1,1.38,1.38,0,0,0-1.06-.38Z"/><path class="cls-4" d="M324.29,257.52c.12,1,.18,2,.24,3s.13,2,.22,3a30.32,30.32,0,0,0,1,5.7,14.69,14.69,0,0,0,1,2.59,8.92,8.92,0,0,0,1.5,2.14,7.35,7.35,0,0,0,2,1.5,8.43,8.43,0,0,0,2.34.81,1.8,1.8,0,1,1-.71,3.52,1.25,1.25,0,0,1-.26-.07h0a12,12,0,0,1-3-1.61,10.18,10.18,0,0,1-2.39-2.47,11.75,11.75,0,0,1-1.46-3,16.9,16.9,0,0,1-.7-3.08,30.8,30.8,0,0,1-.13-6.06c.05-1,.14-2,.23-3S324.26,258.51,324.29,257.52Z"/><path class="cls-4" d="M328.37,209a3.07,3.07,0,0,0-.79-.49,7.13,7.13,0,0,0-.88-.32,13.72,13.72,0,0,0-1.82-.41,30.85,30.85,0,0,0-3.71-.36c-1.24-.06-2.48-.05-3.71,0a31.9,31.9,0,0,0-3.67.38q-.9.14-1.8.33c-.59.14-1.17.29-1.75.46s-1.14.36-1.7.58-1.09.46-1.61.72a15.84,15.84,0,0,0-1.5.87l-.36.25-.34.25c-.22.18-.44.35-.65.54a12.14,12.14,0,0,0-1.17,1.21,10.68,10.68,0,0,0-1,1.36v0a1.34,1.34,0,0,1-1.82.46,1.32,1.32,0,0,1-.5-1.74,10.12,10.12,0,0,1,1.16-1.81,11.9,11.9,0,0,1,1.46-1.55c.26-.24.53-.46.81-.68l.43-.31.43-.29a15.38,15.38,0,0,1,1.81-1,20.41,20.41,0,0,1,3.84-1.35,26.51,26.51,0,0,1,3.94-.64,29.8,29.8,0,0,1,7.84.35,20.83,20.83,0,0,1,3.79,1,13.13,13.13,0,0,1,1.78.84,7.4,7.4,0,0,1,.81.57l.18.16.18.18A2.14,2.14,0,0,1,328.37,209Z"/><g class="cls-3"><path class="cls-4" d="M324.23,199.09a71.44,71.44,0,0,1-22.41,10.29l.2-14.62a88.21,88.21,0,0,1,17.82,2.89C321.31,198.07,322.79,198.54,324.23,199.09Z"/></g><g class="cls-3"><path class="cls-4" d="M236.2,238.28l-14.51,20.9c-19.79,19.95-45.62,16.21-56.66,9.21a19.74,19.74,0,0,1-7.79-10.05c1.13,1.32-.93-11.8.66-10.79.59.38.95,5.85,5.69,11.35a22,22,0,0,0,10.18,6.18c1.28.41.28,1.69,1.69,1.85,25.83,2.87,33-7.22,37.26-17.11L229,201.28c.8-1.75,1.6-3.48,2.4-5.15Z"/></g><path class="cls-4" d="M186.81,275.79a49.42,49.42,0,0,1-11.47-1.34,37.64,37.64,0,0,1-11.27-4.55,20.35,20.35,0,0,1-6.78-7.21,28.45,28.45,0,0,1-3.06-8.43,37.37,37.37,0,0,1-.45-12.08c.21-1.19.83-4.84,3.69-5.79,2.16-.71,4.7.36,7.77,3.29a20.56,20.56,0,0,0,7.73,4.63,10.1,10.1,0,0,1-.54-6.74,6,6,0,0,1,3.1-3.6c1.09-.52,2.88-.81,5.2.74a17.57,17.57,0,0,1,3.77,3.71,42.46,42.46,0,0,1,3.22,4.81A36.64,36.64,0,0,0,210.94,235c.65-.53,1.94-2.23,4.41-7.33,1.91-3.95,4.08-9,6.39-14.35,2.59-6,5.28-12.27,8-18a1.8,1.8,0,0,1,1.92-1,1.78,1.78,0,0,1,1.48,1.56L238,238.07a1.8,1.8,0,0,1-.31,1.23l-14.51,20.9a1.16,1.16,0,0,1-.2.24,50.28,50.28,0,0,1-32.76,15.24C189.06,275.75,187.93,275.79,186.81,275.79Zm-28-36a1.54,1.54,0,0,0-.2,0c-.13.05-.84.41-1.28,3a33.81,33.81,0,0,0,.42,10.77c1.25,6.16,4,10.64,8.25,13.32,4.7,3,13.47,5.93,24,5.23A46.75,46.75,0,0,0,220.31,258l14-20.22-4-35.16c-1.79,4-3.55,8.07-5.28,12.09-5.52,12.8-9,20.76-11.83,23a40.27,40.27,0,0,1-26.57,9,1.8,1.8,0,0,1-1.55-1,38.47,38.47,0,0,0-3.42-5.24c-2.21-2.8-3.9-3.73-4.59-3.4a2.39,2.39,0,0,0-1.23,1.47c-.5,1.52,0,3.86,1.52,6.58a2.42,2.42,0,0,0,.19.24c.07.08.15.16.22.25a1.78,1.78,0,0,1,.2,1.94,1.8,1.8,0,0,1-1.69,1,23,23,0,0,1-13.51-6.4C160.42,240,159.24,239.77,158.8,239.77Z"/><path class="cls-4" d="M155.23,258.11a15.6,15.6,0,0,1-.64-4.13,16.63,16.63,0,0,1,.43-4.19c.09-.34.19-.69.3-1,.06-.17.12-.35.19-.52s.13-.35.21-.52a8.67,8.67,0,0,1,1.23-2l.21-.25.11-.12.12-.11a2.61,2.61,0,0,1,.24-.23l.26-.22.14-.11.15-.1a3.13,3.13,0,0,1,.3-.2l.32-.17.09,0,.08,0,.18-.07a4.4,4.4,0,0,1,.73-.22,4.78,4.78,0,0,1,.76-.09H161l.32,0a5.67,5.67,0,0,1,.66.11,4.54,4.54,0,0,1,1.33.52,4.32,4.32,0,0,1,1.09.93,5.75,5.75,0,0,1,.7,1,10.72,10.72,0,0,1,.45,1c.24.65.42,1.26.61,1.83a17.48,17.48,0,0,0,.62,1.64,7,7,0,0,0,2,2.65,6,6,0,0,0,.71.5c.25.16.51.3.78.44a13.39,13.39,0,0,0,1.7.68h0a.27.27,0,0,1,.17.33.25.25,0,0,1-.26.17,10,10,0,0,1-1.94-.25,8.55,8.55,0,0,1-1.91-.68,6.77,6.77,0,0,1-.9-.52,7.51,7.51,0,0,1-.83-.66,9.49,9.49,0,0,1-1.38-1.59,35,35,0,0,1-1.87-3.39,4.36,4.36,0,0,0-.84-1.14,1.28,1.28,0,0,0-.4-.23,1.8,1.8,0,0,0-.44-.09h-.53a1,1,0,0,0-.17,0c-.05,0-.11.05-.16.09a2.33,2.33,0,0,0-.68.71,6.61,6.61,0,0,0-.6,1.25c0,.11-.08.24-.12.36s-.08.25-.11.37-.07.26-.1.39-.06.26-.09.39a17.73,17.73,0,0,0-.32,3.29,21.88,21.88,0,0,0,.23,3.34v0a1.8,1.8,0,0,1-3.5.77Z"/><path class="cls-2" d="M259,376.07c-4.66,2.82-12.56,5.27-23.74,5.26-15.63,0-28.39-.73-28.26-12,.11-8.92,15.5-13,15.5-13A222.49,222.49,0,0,1,214.57,290c.18-6.61.6-13,1.14-19.19l52.23,9.68a193.26,193.26,0,0,0-5,40.1C262.05,349.6,266.11,371.77,259,376.07Z"/><g class="cls-3"><path class="cls-4" d="M267.94,280.46c-.23.93-.44,1.85-.65,2.78-.09.39-.17.77-.25,1.16l-.33,1.54c-.14.68-.27,1.36-.4,2,0,.21-.09.43-.12.65-.09.45-.17.9-.25,1.35-.12.62-.23,1.25-.33,1.88-.08.4-.14.81-.21,1.22-.28,1.73-.53,3.45-.76,5.16-.14,1.06-.27,2.11-.39,3.16-.06.56-.13,1.12-.19,1.67s-.1,1-.14,1.45c-.08.79-.16,1.57-.23,2.35,0,.53-.09,1.07-.13,1.6-.06.75-.12,1.5-.17,2.24,0,.48-.07.95-.09,1.42l-.09,1.34-.12,2.31a.76.76,0,0,1,0,.15c-.07,1.57-.13,3.11-.17,4.64-.86,29,3.2,51.21-3.93,55.51-4.66,2.82-12.56,5.27-23.74,5.26-12.49,0-23.15-.47-26.85-6.39,5.18,1.9,12.7,2.11,21,2.11,11.18,0,19.08-2.44,23.75-5.25,4.92-3,4.5-14.47,4.06-30.87a28.11,28.11,0,0,0-17.45-25.39c-12.48-5-22.3-13.64-25.22-25.57.18-6.61.6-13,1.14-19.19l45.71,8.47Z"/></g><path class="cls-4" d="M235.28,383.12h0c-11.81,0-22-.42-27-5.45a11.21,11.21,0,0,1-3.09-8.34c.05-4.33,3.07-8.27,8.72-11.37a38.24,38.24,0,0,1,6.39-2.76,221.7,221.7,0,0,1-7.24-44.81,269.73,269.73,0,0,1,.87-39.77,1.79,1.79,0,1,1,3.57.32c-2,22.64-2.74,50.45,6.71,85l.48,1.75-1.76.46a36.56,36.56,0,0,0-7.35,3c-3.08,1.7-6.76,4.51-6.8,8.24a7.66,7.66,0,0,0,2.05,5.78c4,4,13.82,4.38,24.41,4.39h0c12.62,0,19.68-3.13,22.78-5,1.67-1,2.7-3.87,3.15-8.72.47-5,.28-11.77.07-19.6C260.8,328.8,260.15,305,266.2,280a1.79,1.79,0,1,1,3.48.84c-5.93,24.45-5.29,48-4.82,65.24.46,16.88.77,28-4.95,31.49C256.5,379.67,248.76,383.12,235.28,383.12Z"/><path class="cls-2" d="M170.46,271.07s-8.26-3.36-7.58-9.25c.64-5.59,4.53-8,6.33-7.72,2.72.5,1.72,8.2,1.72,8.2s7.32-1.68,10.21-.07"/><g class="cls-3"><path class="cls-4" d="M175.46,266.93l-5,4.14s-8.26-3.36-7.58-9.25a10.77,10.77,0,0,1,1.41-4.36c0,.13,0,.25,0,.38C164.26,265.12,172.92,266.64,175.46,266.93Z"/></g><path class="cls-4" d="M245.75,335.72a59.27,59.27,0,0,1-11.11-1.06,69.45,69.45,0,0,1-18.8-6.6,1.33,1.33,0,0,1,1.21-2.36c13.38,6.9,24.95,7.75,32.29,7.25a40.13,40.13,0,0,0,12.89-2.77,1.33,1.33,0,0,1,1.11,2.41,42.39,42.39,0,0,1-13.68,3C248.37,335.68,247.06,335.72,245.75,335.72Z"/><path class="cls-4" d="M222,354.89l.13,0,.12,0,.21-.05.43-.09.43-.08.42-.07c.56-.09,1.11-.16,1.67-.22,1.11-.12,2.23-.19,3.34-.21a40.36,40.36,0,0,1,6.6.42c.54.07,1.08.17,1.62.27l.8.16.41.08.4.1c1.06.24,2.11.54,3.15.86a40.81,40.81,0,0,1,6,2.48,40.89,40.89,0,0,0-6.19-1.71c-1-.19-2.1-.36-3.15-.46l-.4,0-.39,0-.79-.06c-.53,0-1.06-.06-1.59-.07a38.66,38.66,0,0,0-6.28.37c-1,.15-2,.34-3.06.58-.5.12-1,.25-1.49.39l-.36.11-.36.11-.35.12-.17.06-.08,0-.06,0a1.61,1.61,0,0,1-1.65-2.77,1.34,1.34,0,0,1,.37-.16Z"/><g class="cls-3"><path class="cls-4" d="M259.38,316.08c.08-1.56.18-3.17.31-4.84C259.57,312.91,259.46,314.52,259.38,316.08Z"/></g><g class="cls-3"><path class="cls-4" d="M259.79,309.88c.07-.91.15-1.84.23-2.79C259.94,308,259.86,309,259.79,309.88Z"/></g><g class="cls-3"><path class="cls-4" d="M260.45,302.73c.08-.87.18-1.76.29-2.65C260.63,301,260.54,301.86,260.45,302.73Z"/></g><g class="cls-3"><path class="cls-4" d="M260.78,299.66c.12-1,.25-2,.38-3.1C261,297.62,260.9,298.65,260.78,299.66Z"/></g><path class="cls-2" d="M313.82,276.91a34.75,34.75,0,0,1-.67,4.79c-2,9.41-7.76,16.52-15.61,21.44-30.25,19-91.43,5.35-86.54-34.21,2.51-20.34,10.31-41.1,16.08-61.75q1.47-5.24,2.72-10.45c9.82-22.64,69.14-13.52,72.11-6.22.89,2.19,1.76,4.68,2.58,7.4,1.06,3.45,2.06,7.28,3,11.37a286.52,286.52,0,0,1,6.66,56.64C314.16,269.83,314.06,273.53,313.82,276.91Z"/><g class="cls-3"><path class="cls-4" d="M313.82,276.91c-.84,11.82-7.15,20.51-16.28,26.23-30,18.83-90.48,5.57-86.64-33.29,3.49,33.48,58.48,44.07,86.64,26.41,9.13-5.72,15.44-14.41,16.28-26.24.15-2,.24-4.15.29-6.39C314.19,268.4,314.11,272.88,313.82,276.91Z"/></g><path class="cls-4" d="M264.58,313.39q-3.42,0-6.89-.29c-12.9-1.1-24.79-5.19-33.49-11.52a37.74,37.74,0,0,1-12-13.89,33.34,33.34,0,0,1-3-19c1.66-13.49,5.58-27,9.8-40.82.4-1.32.8-2.64,1.21-4,2.78-9.07,5.65-18.46,7.82-27.62l0-.15.06-.15c2.43-5.61,7.69-9.77,15.61-12.38,6.38-2.1,14.53-3.15,23.58-3a109.39,109.39,0,0,1,23.44,2.79,46.38,46.38,0,0,1,8.21,2.7c2.53,1.16,4,2.4,4.58,3.77,8,19.63,13.83,62,12,87.2a33.73,33.73,0,0,1-7,18.64,41.28,41.28,0,0,1-15.43,11.87A68.53,68.53,0,0,1,264.58,313.39ZM231.5,197.3c-2.19,9.22-5.07,18.61-7.85,27.68l-1.2,4c-4.17,13.66-8,27-9.67,40.22-1.85,14.92,6.34,24.3,13.53,29.53,16.92,12.32,45.63,14.79,65.35,5.62,8.69-4.05,19.28-12.1,20.37-27.52,1.76-24.76-4-66.36-11.78-85.59-.21-.53-2.56-2.45-10.31-4.33a106.45,106.45,0,0,0-22.64-2.7c-8.66-.1-16.41.89-22.42,2.87C238,189.28,233.54,192.74,231.5,197.3Z"/><circle class="cls-2" cx="215.35" cy="265.4" r="7.63"/><g class="cls-3"><path class="cls-4" d="M207.72,265.4a7.63,7.63,0,0,0,15.26,0,7.46,7.46,0,0,0-.74-3.26,7.63,7.63,0,0,1-13.79,0A7.6,7.6,0,0,0,207.72,265.4Z"/></g><path class="cls-4" d="M215.35,274.62a9.22,9.22,0,1,1,9.21-9.22A9.23,9.23,0,0,1,215.35,274.62Zm0-15.26a6,6,0,1,0,6,6A6,6,0,0,0,215.35,259.36Z"/><g class="cls-3"><path class="cls-4" d="M313.82,276.91a34.75,34.75,0,0,1-.67,4.79c-3.19,1-13.2,3-37.64,1l-.12,2a8.71,8.71,0,0,1-9.18,8.15L226,290.46a8.72,8.72,0,0,1-8.15-9.19l.27-4.45,1-17a8.69,8.69,0,0,1,9.18-8.15l40.25,2.39a8.82,8.82,0,0,1,1.72.28,8.72,8.72,0,0,1,6.43,8.91l-.22,3.67c5.34.67,24.24,2.63,37.47-1l.23-.05C314.16,269.83,314.06,273.53,313.82,276.91Z"/></g><path class="cls-2" d="M223.3,284.32l40.25,2.4a8.71,8.71,0,0,0,9.18-8.16L274,257.14a8.69,8.69,0,0,0-8.15-9.18l-40.24-2.39a8.7,8.7,0,0,0-9.19,8.15l-1,17-.26,4.46A8.69,8.69,0,0,0,223.3,284.32Z"/><g class="cls-3"><path class="cls-4" d="M223.3,284.32l40.25,2.4a8.71,8.71,0,0,0,9.18-8.16L274,257.14a8.71,8.71,0,0,0-6.43-8.9l-3.88,2.27c-3,17.07-8.39,25.36-29.76,24.44-9.23-.4-15-2.16-18.52-4.27l-.26,4.46A8.69,8.69,0,0,0,223.3,284.32Z"/></g><path class="cls-4" d="M264.07,288.53l-.63,0-40.25-2.4A10.5,10.5,0,0,1,213.36,275l1.27-21.42a10.48,10.48,0,0,1,11.08-9.83L266,246.17a10.48,10.48,0,0,1,9.83,11.08l-1.27,21.42a10.51,10.51,0,0,1-10.45,9.86Zm-39-41.19a6.9,6.9,0,0,0-6.87,6.48l-1.27,21.43a6.91,6.91,0,0,0,6.46,7.28l40.25,2.4a6.91,6.91,0,0,0,7.29-6.47L272.21,257a6.91,6.91,0,0,0-6.46-7.29l-40.25-2.39Z"/><path class="cls-2" d="M221.69,284.07a7.73,7.73,0,0,0,1.61.25l40.25,2.4a8.72,8.72,0,0,0,8.19-4.63,8.52,8.52,0,0,0,1-3.53l.57-9.51.19-3.14.52-8.77a8.7,8.7,0,0,0-8.15-9.18l-8.7-.51a8.69,8.69,0,0,1,6.56,8.92L263,267.94l-.59,9.86a8.71,8.71,0,0,1-9.18,8.15Z"/><g class="cls-3"><path class="cls-4" d="M221.69,284.07a7.73,7.73,0,0,0,1.61.25l40.25,2.4a8.7,8.7,0,0,0,9.17-8.16l.76-12.65c-1.14,2.17-3.13,4.81-6.05,4.93-1.61.06-3.11-1.18-4.4-2.9l-.59,9.86a8.71,8.71,0,0,1-9.18,8.15Z"/></g><path class="cls-4" d="M264.08,288.53l-.64,0-40.24-2.4a10,10,0,0,1-2-.31l.57-3.52,31.56,1.88a6.91,6.91,0,0,0,7.29-6.47l1.27-21.42a6.89,6.89,0,0,0-5.2-7.09l.54-3.53,8.7.52a10.5,10.5,0,0,1,9.83,11.08l-1.27,21.42a10.51,10.51,0,0,1-10.44,9.86Zm-3-3.76,2.57.16a6.91,6.91,0,0,0,7.29-6.47h0L272.21,257a6.91,6.91,0,0,0-6.47-7.29l-2.3-.14a10.43,10.43,0,0,1,2.06,6.87l-1.27,21.43A10.39,10.39,0,0,1,261.08,284.77Z"/><path class="cls-5" d="M247.19,266.32c0,.79.73,7.25.73,7.25l4.52.24c3.1.17,5.8-2.92,6-6.89s-2.13-7.32-5.24-7.49l-4.52-.24S247.26,265,247.19,266.32Z"/><g class="cls-3"><path class="cls-4" d="M247.19,266.32c0,.79.73,7.25.73,7.25l4.52.24c3.1.17,5.8-2.92,6-6.89s-2.13-7.32-5.24-7.49l-4.52-.24S247.26,265,247.19,266.32Z"/></g><path class="cls-4" d="M252.68,275.16h-.32l-4.51-.24a1.35,1.35,0,0,1-1.26-1.19c-.24-2-.78-6.66-.74-7.48.07-1.34,1.29-6.38,1.54-7.37a1.33,1.33,0,0,1,1.38-1l4.51.24a6.39,6.39,0,0,1,4.9,2.89,10,10,0,0,1-.64,11.82A6.43,6.43,0,0,1,252.68,275.16Zm-3.56-2.88,3.39.19a3.81,3.81,0,0,0,3-1.44,7.32,7.32,0,0,0,.45-8.51,3.74,3.74,0,0,0-2.83-1.75l-3.4-.18c-.52,2.2-1.16,5.06-1.2,5.79C248.53,266.84,248.81,269.56,249.12,272.28Zm-.58-5.89Zm-1.35-.07Z"/><ellipse class="cls-5" cx="248.31" cy="266.38" rx="7.2" ry="5.64" transform="translate(-31.01 500.03) rotate(-86.92)"/><g class="cls-3"><path class="cls-4" d="M247.92,273.56c3.11.17,5.8-2.91,6-6.88a9.31,9.31,0,0,0-.24-2.61c-.75,3.16-3.11,5.4-5.78,5.26-2.39-.13-4.34-2.15-5-4.89a8.66,8.66,0,0,0-.24,1.63C242.47,270.05,244.81,273.4,247.92,273.56Z"/></g><g class="cls-6"><path class="cls-2" d="M242.77,268c.53-3.54,3-6.17,5.92-6,2.61.13,4.68,2.51,5.16,5.62,0-.29.07-.58.09-.88.21-4-2.14-7.32-5.25-7.49s-5.8,2.91-6,6.88A9.68,9.68,0,0,0,242.77,268Z"/></g><path class="cls-4" d="M248.17,274.92h-.32A6.42,6.42,0,0,1,243,272a9.62,9.62,0,0,1-1.61-6h0a9.59,9.59,0,0,1,2.25-5.8,6.16,6.16,0,0,1,10.07.54,10,10,0,0,1-.63,11.82A6.44,6.44,0,0,1,248.17,274.92Zm.29-14.39a3.83,3.83,0,0,0-2.85,1.43,6.94,6.94,0,0,0-1.59,4.19h0a6.9,6.9,0,0,0,1.14,4.33,3.49,3.49,0,0,0,5.84.31,7.35,7.35,0,0,0,.46-8.51,3.77,3.77,0,0,0-2.84-1.75Zm-5.78,5.54Z"/><path class="cls-4" d="M235.82,286.23h0a1.31,1.31,0,0,1-1.27-1.37l.37-10.39a9.76,9.76,0,0,0-2.5-6.89l-.52-.59a12.47,12.47,0,0,1-3.15-9.11l.78-12.08a1.32,1.32,0,1,1,2.64.18l-.78,12.07a9.85,9.85,0,0,0,2.48,7.18l.53.58a12.41,12.41,0,0,1,3.16,8.75l-.37,10.4A1.32,1.32,0,0,1,235.82,286.23Z"/><path class="cls-2" d="M317.81,266.91c-.19,5.94-6.07,8.2-6.07,8.2s-8.13,4.22-41.68,1.18c0,0-9.49-9.71,2.27-15.66,0,0,23.37,3.45,38.92-.79C314.05,259.08,318,261.61,317.81,266.91Z"/><g class="cls-3"><path class="cls-4" d="M317.81,266.91c-.19,5.93-6.07,8.2-6.07,8.2s-8.13,4.22-41.68,1.18c0,0-5.37-5.5-3-10.75l0,.08a8,8,0,0,0,6.84,5.08c30.32,2.38,37.83-1.51,37.83-1.51a10.48,10.48,0,0,0,5.57-5.57A8.35,8.35,0,0,1,317.81,266.91Z"/></g><path class="cls-4" d="M291.68,279.19c-5.79,0-12.4-.32-19.79-.94a6.38,6.38,0,0,1-4.76-2.76c-1.44-2.13-3-5.4-2.31-8.9a10.36,10.36,0,0,1,5-6.6A6.4,6.4,0,0,1,274,259c5.37.67,23.88,2.57,36.74-.93a6.51,6.51,0,0,1,5.66,1.32,9,9,0,0,1,3.17,7.54l-1.8-.06,1.8.06c-.23,6.71-6.33,9.44-7.15,9.78-.52.25-2.83,1.19-8.41,1.83A112.3,112.3,0,0,1,291.68,279.19Zm-18.43-16.61a2.78,2.78,0,0,0-1.49.43,7,7,0,0,0-3.42,4.3c-.47,2.27.7,4.6,1.76,6.16a2.79,2.79,0,0,0,2.09,1.21c15.92,1.34,25.59,1,30.9.4,5.56-.59,7.65-1.49,7.83-1.57l.1-.05.07,0c.19-.08,4.78-1.95,4.93-6.59h0a5.33,5.33,0,0,0-1.8-4.61,2.94,2.94,0,0,0-2.5-.67c-13.49,3.68-32.59,1.72-38.12,1Z"/><path class="cls-2" d="M270.67,305.1c-.1-1.43,2.8,36.56,6.14,59.8,2.39,16.68,17.67,18.41,42.1,16.68,9-.63,15.88-3.31,15.19-10.42-.94-9.55-14.91-13.17-14.91-13.17s-3.48-39.26-6.23-80"/><path class="cls-4" d="M270.07,305.15a.11.11,0,0,0,0,0c2.42-.17.68,0,1.22-.05l0,.07,0,.15.09.29.15.59c.1.39.19.78.28,1.17.18.79.34,1.57.49,2.36.3,1.57.56,3.14.78,4.72s.41,3.15.59,4.73.34,3.16.49,4.74c.32,3.17.56,6.34.83,9.5.13,1.59.28,3.17.42,4.75s.31,3.16.48,4.74c.67,6.32,1.39,12.63,2.24,18.91l.33,2.35.08.58.09.56c0,.18.07.36.1.54l.05.28.06.27a17.91,17.91,0,0,0,1.38,4.11,13,13,0,0,0,1.05,1.85,13.75,13.75,0,0,0,1.31,1.65,14.37,14.37,0,0,0,3.31,2.63,20.12,20.12,0,0,0,4,1.78c.71.24,1.43.44,2.16.62s1.47.33,2.22.47a59.87,59.87,0,0,0,9.23.83c3.12.08,6.26,0,9.41-.15,1.58-.07,3.15-.16,4.73-.27l1.18-.08,1.15-.1c.38,0,.76-.08,1.14-.12l1.13-.16c.75-.11,1.49-.25,2.22-.41s1.43-.36,2.12-.59a11.84,11.84,0,0,0,3.64-1.89,6.22,6.22,0,0,0,1.23-1.35,5,5,0,0,0,.68-1.62,6.4,6.4,0,0,0,.14-1.87,7.8,7.8,0,0,0-.33-1.92,9.7,9.7,0,0,0-2-3.49,16.59,16.59,0,0,0-3.22-2.83,26.85,26.85,0,0,0-3.9-2.17c-.68-.31-1.38-.59-2.09-.86l-1.06-.37-.53-.17-.26-.08-.24-.06-1.23-.35-.11-1.23q-.87-10-1.69-20t-1.61-20l-1.53-20c-.14-1.66-.31-3.33-.46-5s-.26-3.33-.33-5c0-.83,0-1.67-.06-2.51s0-1.68.06-2.52.1-1.68.19-2.53a25.25,25.25,0,0,1,.4-2.54.63.63,0,0,1,.74-.47.64.64,0,0,1,.45.39h0a22.48,22.48,0,0,1,.74,2.47c.21.82.38,1.64.54,2.47.31,1.66.51,3.32.69,5,.36,3.33.45,6.67.65,10,.1,1.67.23,3.33.35,5l.38,5,.77,10q.78,10,1.6,20t1.69,20l-1.33-1.57.17.05.16,0,.31.09.61.2,1.19.41c.78.29,1.56.61,2.32,1a29.78,29.78,0,0,1,4.44,2.47,20,20,0,0,1,3.92,3.46c.29.34.57.7.84,1.07a13.42,13.42,0,0,1,.73,1.16,12.59,12.59,0,0,1,1.1,2.55,11.83,11.83,0,0,1,.48,2.76,9.76,9.76,0,0,1-.23,2.88,8.72,8.72,0,0,1-1.16,2.76,9.48,9.48,0,0,1-2,2.16,12.45,12.45,0,0,1-2.32,1.51,17.1,17.1,0,0,1-2.45,1,24.55,24.55,0,0,1-2.47.69c-.82.19-1.65.34-2.47.47l-1.24.17-1.23.13-1.23.1-1.2.09c-1.6.1-3.2.2-4.8.27-3.21.15-6.43.23-9.67.16a64.87,64.87,0,0,1-9.77-.89c-.82-.15-1.63-.32-2.45-.52s-1.62-.43-2.42-.69a24.06,24.06,0,0,1-4.71-2.1A18.25,18.25,0,0,1,280,376.4a17.71,17.71,0,0,1-1.66-2.09A18,18,0,0,1,277,372a22.53,22.53,0,0,1-1.65-4.91l-.06-.31-.06-.31-.12-.63-.1-.63-.08-.6-.33-2.37c-.86-6.33-1.58-12.67-2.26-19l-.5-4.75-.53-4.76c-.35-3.16-.7-6.33-1-9.51-.14-1.58-.26-3.17-.36-4.76s-.2-3.18-.24-4.78-.06-3.19,0-4.79c0-.8.05-1.6.1-2.4l.09-1.21.06-.6,0-.3,0-.15v-.08c.54,0-1.2.06,1.21-.11,0,0,0,0,0,0l0,.11a.6.6,0,0,1-.73.43A.61.61,0,0,1,270.07,305.15Z"/><path class="cls-4" d="M288.16,339a60.22,60.22,0,0,1-14.72-1.74,1.31,1.31,0,0,1-1-1.6,1.32,1.32,0,0,1,1.61-1c10.9,2.73,21.83,1.56,29.08.09a74.57,74.57,0,0,0,13.32-3.92,1.33,1.33,0,1,1,1,2.44,77,77,0,0,1-13.77,4.06A79.17,79.17,0,0,1,289.67,339C289.17,339,288.66,339,288.16,339Z"/><path class="cls-4" d="M318.71,359.51l-.07,0-.08,0-.17-.06-.35-.12-.74-.21q-.74-.21-1.5-.39c-1-.23-2.05-.42-3.09-.56a39.09,39.09,0,0,0-6.32-.39c-.26,0-.53,0-.79,0l-.8,0-.8.06-.4,0-.39,0-.8.08-.79.1-.4.05-.4.07-.79.13a41.6,41.6,0,0,0-6.25,1.62,42.91,42.91,0,0,1,6.06-2.4,42.11,42.11,0,0,1,6.43-1.42,43,43,0,0,1,6.63-.4c1.11,0,2.23.09,3.35.2l1.68.21.84.15.43.08.22.05.12,0,.13,0,.23.06a1.61,1.61,0,1,1-.85,3.11Z"/><g class="cls-3"><path class="cls-4" d="M271.85,306.27c0,.64,1.71,36,5,58.63,2.4,16.68,17.67,18.41,42.1,16.68,9-.63,15.88-3.31,15.19-10.42,0-.17,0-.33-.07-.49-2.76,1.81-6.9,2.71-11.63,3-24.43,1.73-39.71,0-42.11-16.68-2.48-17.27-6.51-40.53-8.39-50.74h0A0,0,0,0,0,271.85,306.27Z"/></g><path class="cls-7" d="M185.71,196.62a28.2,28.2,0,0,1,0,3.44,28.51,28.51,0,0,1-.66,4.77,28.1,28.1,0,0,1-32.33,21.42,28.58,28.58,0,0,1-4.45-1.17,27.61,27.61,0,0,1-3.32-1.42,141.49,141.49,0,0,0,21.47-11.86A140.06,140.06,0,0,0,185.71,196.62Z"/><path class="cls-8" d="M152.86,226.72l-.11-.46-.29-.38.08-.06.1,0c3.7-.88,10.48-4.35,17.25-8.85s12.49-9.27,14.81-12.4l.76.57c-2.38,3.2-8.14,8-15,12.62S156.72,225.8,152.86,226.72Z"/><path class="cls-8" d="M166.45,211.8a140.06,140.06,0,0,0,19.26-15.18,28.2,28.2,0,0,1,0,3.44,122.38,122.38,0,0,1-18,14.18,125.34,125.34,0,0,1-19.41,10.84,27.61,27.61,0,0,1-3.32-1.42A141.49,141.49,0,0,0,166.45,211.8Z"/><g class="cls-3"><path class="cls-4" d="M185.71,192.73a28.1,28.1,0,0,1-33,29.63,28.58,28.58,0,0,1-4.45-1.17,29.32,29.32,0,0,1-3.32-1.42,141.49,141.49,0,0,0,21.47-11.86A140.82,140.82,0,0,0,185.71,192.73Z"/></g><g class="cls-3"><path class="cls-4" d="M182.84,182.32c-.17.19-.34.39-.53.59.16-.24.31-.48.46-.73A.91.91,0,0,1,182.84,182.32Z"/></g><path class="cls-7" d="M181.09,183.06a28.92,28.92,0,0,1,1.75,3c-3.91,4.39-12,10.94-21.85,17.49S142,215,136.4,216.93a28,28,0,0,1-2.12-2.79l-.09-.14c-.29-.44-.56-.88-.82-1.32a30.7,30.7,0,0,1-1.59-3.2l-.06-.14a27.47,27.47,0,0,1-1.53-5,28.11,28.11,0,0,1,43.26-29,27.86,27.86,0,0,1,4,3.3l.3.31a26.46,26.46,0,0,1,2.32,2.71c.27.35.54.72.79,1.09Z"/><path class="cls-8" d="M180.88,182.75l.21.31a28.92,28.92,0,0,1,1.75,3c-3.91,4.39-12,10.94-21.85,17.49S142,215,136.4,216.93a28,28,0,0,1-2.12-2.79l-.09-.14c5.32-1.48,14.69-6.3,24.74-13C169.38,194.09,177.7,187.05,180.88,182.75Z"/><path class="cls-8" d="M130.29,205.33l-.2-1.88c3.81-.42,13.18-5.17,22.79-11.55,11.46-7.61,18.58-14.28,19.69-16.93l1.75.73c-1.47,3.51-9.66,10.66-20.39,17.78C143.93,200.12,134.44,204.88,130.29,205.33Z"/><path class="cls-8" d="M130.14,195.68l-.57-1.81c4.14-1.32,11.1-5.05,18.15-9.73,7.39-4.91,13.65-10,16.32-13.32l1.48,1.19c-2.79,3.45-9.21,8.7-16.75,13.71C141.58,190.49,134.44,194.31,130.14,195.68Z"/><path class="cls-8" d="M131.87,210.28l-.29-1.87c4.34-.69,14-5.64,24.08-12.32,10.56-7,19.18-14.36,21-17.88l1.69.86c-1.95,3.84-10.63,11.31-21.6,18.6C146.28,204.6,136.53,209.55,131.87,210.28Z"/><path class="cls-4" d="M157.71,228.5a29.93,29.93,0,0,1-13.54-3.23,1.79,1.79,0,0,1-1-1.66,1.83,1.83,0,0,1,1.09-1.61,138.42,138.42,0,0,0,21.19-11.7,138.73,138.73,0,0,0,19-15,1.82,1.82,0,0,1,1.9-.38,1.79,1.79,0,0,1,1.15,1.56,29.92,29.92,0,0,1-28.32,32C158.7,228.49,158.2,228.5,157.71,228.5Zm-8.2-4.92a26.28,26.28,0,0,0,34.37-22.82,156.28,156.28,0,0,1-34.37,22.82Z"/><path class="cls-9" d="M196.57,177.56c2.28,3.43-2.2,10.75-10.86,19.06a140.06,140.06,0,0,1-19.26,15.18A141.49,141.49,0,0,1,145,223.66c-11,4.76-19.5,6-21.78,2.61-2.06-3.11,1.43-9.44,8.58-16.79a30.7,30.7,0,0,0,1.59,3.2c-1.94,2.2-2.81,3.84-2.29,4.62s2.44.62,5.32-.37C142,215,151.13,210.12,161,203.58s17.94-13.1,21.85-17.49c2-2.26,2.94-4,2.41-4.75s-2.37-.62-5.16.32a26.46,26.46,0,0,0-2.32-2.71C187.32,175.22,194.5,174.45,196.57,177.56Z"/><path class="cls-10" d="M131.2,220.92a3.37,3.37,0,0,1-3-1.19c-1.12-1.69.18-4.54,4-8.71l1.13,1c-3.57,3.92-4.32,6.1-3.83,6.83.81,1.23,6,.46,15.39-4.15a153.47,153.47,0,0,0,17-9.86,154.55,154.55,0,0,0,15.68-11.82c7.9-6.89,10.61-11.35,9.8-12.57-.49-.74-2.79-.89-7.79.88l-.51-1.44c5.32-1.89,8.45-2,9.57-.29,2,3-4.36,9.6-10.06,14.58a155.3,155.3,0,0,1-15.85,11.93,154.91,154.91,0,0,1-17.15,10C140.63,218.52,134.8,220.92,131.2,220.92Z"/><path class="cls-10" d="M129.46,225c-2,0-3.5-.49-4.32-1.72-2.11-3.18,2.38-9,6.51-13.37l1.11,1.06c-6.06,6.36-7.25,10.1-6.34,11.46,1.12,1.69,6.56,1.77,18.21-3.57A144.59,144.59,0,0,0,163.9,208a144.35,144.35,0,0,0,17.53-13.53c9.44-8.66,11.48-13.71,10.36-15.4-.91-1.36-4.81-1.72-13,1.4l-.55-1.43c5.61-2.13,12.74-4,14.85-.81,2.75,4.13-5.46,12.65-10.6,17.37a146.56,146.56,0,0,1-17.71,13.68,146.1,146.1,0,0,1-19.49,11C140.81,222.29,134.05,225,129.46,225Z"/><g class="cls-3"><path class="cls-4" d="M169.32,208.77a138.87,138.87,0,0,1-21,11.55c-11,4.76-19.5,6-21.78,2.61-2.07-3.11,1.43-9.43,8.57-16.79a27.29,27.29,0,0,0,1.6,3.2c-2,2.2-2.82,3.84-2.29,4.63s2.44.61,5.31-.37a92.87,92.87,0,0,0,15-7.36,3.8,3.8,0,0,0,.58,2.23C157,211,162.2,211,169.32,208.77Z"/></g><path class="cls-4" d="M128.35,229.87c-2.87,0-5.25-.74-6.54-2.68s-1.12-4.93.75-8.5a46.88,46.88,0,0,1,8-10.38,1.68,1.68,0,0,1,2.74.52,24.82,24.82,0,0,0,1.5,3,1.66,1.66,0,0,1-.2,1.94,14.39,14.39,0,0,0-1.75,2.33,14,14,0,0,0,3-.76c5.6-1.92,14.88-7,24.22-13.16S177.66,189.4,181.6,185a14,14,0,0,0,1.86-2.45,13.69,13.69,0,0,0-2.83.71,1.67,1.67,0,0,1-1.87-.58,26.53,26.53,0,0,0-2.19-2.55,1.68,1.68,0,0,1,.59-2.72A47.51,47.51,0,0,1,189.84,174c4-.33,6.75.55,8.12,2.62h0c3.72,5.61-5.35,15.68-11.09,21.18a143,143,0,0,1-19.5,15.37,142,142,0,0,1-21.73,12C140.87,227.25,133.75,229.87,128.35,229.87Zm3-17.47c-6.1,6.71-7.83,11.29-6.73,12.95.71,1.05,2.9,1.43,6,1a54.25,54.25,0,0,0,13.72-4.25,138.77,138.77,0,0,0,21.21-11.72,138.24,138.24,0,0,0,19-15,54.19,54.19,0,0,0,9.24-11c1.58-2.71,2.08-4.88,1.38-5.94-1.1-1.65-6-1.84-14.54,1.17l.05.07c2.33-.68,4.82-1,5.95.7,1.33,2-.67,4.68-2.55,6.79-4.19,4.68-12.48,11.32-22.18,17.76s-19,11.5-25,13.54c-2.68.92-5.92,1.72-7.25-.28-1.13-1.7.13-3.87,1.66-5.76Z"/><g class="cls-3"><path class="cls-4" d="M185.9,183c-3.91,4.38-12,10.93-21.85,17.48s-19,11.45-24.6,13.35a26.84,26.84,0,0,1-2.11-2.79l-.09-.14c-.29-.44-.56-.88-.82-1.32a28,28,0,0,1-1.59-3.2l-.06-.13a28,28,0,0,1-1.53-4.95,28.12,28.12,0,0,1,8.25-26.27,28,28,0,0,0-.25,22.07l.05.14c0,.05.06.13.1.21,2.17,4.54,7.62,5.73,12.5,4.49,9.3-2.35,28-16.64,31.94-19.87C186.26,182.79,185.55,182.33,185.9,183Z"/></g><g class="cls-11"><path class="cls-2" d="M182.18,186.77c-.46.51-1,1-1.53,1.61-.38-.68-.79-1.36-1.23-2l-.21-.31c-.25-.38-.52-.74-.79-1.1a26.37,26.37,0,0,0-2.33-2.71l-.29-.3a27.48,27.48,0,0,0-4-3.31,28.11,28.11,0,0,0-41.44,11.87,28.08,28.08,0,0,1,46.47-11.18l.3.3a30.45,30.45,0,0,1,2.33,2.71c.27.36.53.73.79,1.1a3.28,3.28,0,0,1,.2.31A28,28,0,0,1,182.18,186.77Z"/></g><path class="cls-4" d="M136.4,218.74a1.79,1.79,0,0,1-1.37-.63,27.25,27.25,0,0,1-2.25-3c-.34-.51-.67-1-1-1.56a30.8,30.8,0,0,1-1.7-3.4,29.91,29.91,0,0,1,48.95-32.5,31,31,0,0,1,2.48,2.89c.36.48.72,1,1.06,1.49h0a32.5,32.5,0,0,1,1.86,3.23,1.81,1.81,0,0,1-.27,2C180,192,171.7,198.64,162,205.08s-19.06,11.52-25,13.56A1.69,1.69,0,0,1,136.4,218.74Zm21.29-46.43a26.23,26.23,0,0,0-22.75,39.46c.26.46.55.92.85,1.37s.77,1.12,1.19,1.66c5.66-2.18,14.31-7,23-12.73s16.46-11.89,20.66-16.27c-.33-.59-.69-1.17-1.07-1.74h0c-.29-.45-.61-.89-.93-1.31a25.16,25.16,0,0,0-2.18-2.54A26.18,26.18,0,0,0,157.69,172.31Z"/><path class="cls-2" d="M328.18,308.48c-3.31,2.48-6.08.46-18,1.4-1.95.15-9.25,1.25-11.6-1.61a6.93,6.93,0,0,1-1-5.13,24.94,24.94,0,0,1,1.85-6.58s-3.14-.5-4.39-5,4.07-13.18,4.07-13.18,1.12-32.79-3.21-55.19l-4-5-21.95-27.6,33.41,5.62s.42.61,1.17,1.78c1.18,1.81,3.15,5,5.55,9.3,8.23,14.81,21.47,43.07,24.57,76.14C335.16,289.3,335.91,302.73,328.18,308.48Z"/><g class="cls-3"><path class="cls-4" d="M334.39,296.72c-.78,4.57-2.54,9-6.21,11.76-3.31,2.48-6.08.46-18,1.4-1.95.15-9.25,1.25-11.6-1.61a6.93,6.93,0,0,1-1-5.13,24.94,24.94,0,0,1,1.85-6.58s-3.14-.5-4.39-5c-.67-2.4.53-6,1.8-8.81a6.71,6.71,0,0,0,.14,2.4c1.26,4.53,4.4,5,4.4,5a24.39,24.39,0,0,0-1.85,6.57c-.21,1.91,1.68-1.94,1.74-.26.24,8,9,7.16,10.9,7,11.91-.94,14.68,1.08,18-1.39A14.15,14.15,0,0,0,334.39,296.72Z"/></g><path class="cls-4" d="M296.45,223c.4,1.1.75,2.22,1.08,3.34l.24.85c.08.28.14.57.21.85q.21.85.39,1.71c.13.57.25,1.14.37,1.71.06.29.11.57.16.86l.15.86.27,1.73.13.86c.05.29.09.58.12.86.59,4.62.95,9.26,1.14,13.9l.11,3.48,0,.86,0,.87,0,1.74,0,1.74,0,1.74,0,1.74c0,.58,0,1.16,0,1.74,0,1.16,0,2.31,0,3.47s0,2.32,0,3.48l0,1.74,0,1.74c0,1.16-.05,2.31-.08,3.49a1.86,1.86,0,0,1-.24.84l0,0-.15.25-.16.27c-.1.19-.21.37-.31.55l-.59,1.12c-.39.75-.75,1.51-1.09,2.28s-.64,1.54-.9,2.31a17.52,17.52,0,0,0-.62,2.3,7.54,7.54,0,0,0-.15,2.12,3,3,0,0,0,.07.43l0,.1a.09.09,0,0,0,0,.05l0,.07.09.26a4.36,4.36,0,0,0,.17.51l.11.25a2.44,2.44,0,0,0,.1.24,5.29,5.29,0,0,0,1.13,1.6,4,4,0,0,0,.72.54l.09.06.1,0,.09.05.1,0,.17.06.07,0h0l1.34,2.52-.1.24-.11.27c-.08.19-.15.37-.22.56-.14.37-.27.74-.4,1.12s-.23.76-.34,1.14-.19.76-.27,1.14a13.73,13.73,0,0,0-.31,2.23,9.07,9.07,0,0,0,0,1.05,3.87,3.87,0,0,0,0,.49,1.55,1.55,0,0,0,.05.23l0,.12,0,.11a3.09,3.09,0,0,0,.3.76l.09.16.1.14a.75.75,0,0,0,.11.13l0,.05.06.06a3.08,3.08,0,0,0,.64.41,6.14,6.14,0,0,0,.89.32,11.88,11.88,0,0,0,2.17.34l1.16,0,1.2,0c.8,0,1.61-.09,2.43-.17l.63-.07.66-.06,1.31-.1c1.73-.11,3.46-.18,5.2-.18.87,0,1.74,0,2.61,0l2.57.09c.84,0,1.67.07,2.42,0a8.63,8.63,0,0,0,1.06-.08,4.46,4.46,0,0,0,.89-.22,3.91,3.91,0,0,0,.79-.4l.1-.06.1-.07a2.08,2.08,0,0,0,.2-.15l.43-.34.1-.08.1-.1.2-.18c.14-.13.27-.25.4-.39l.37-.4.36-.42c.05-.08.12-.14.17-.22l.16-.23.17-.22.16-.23.3-.48c0-.08.1-.16.14-.24l.14-.25.14-.25c.05-.08.09-.17.13-.25l.26-.52c.15-.35.31-.7.45-1.06a24.72,24.72,0,0,0,1.24-4.58c.13-.79.24-1.59.32-2.39s.14-1.62.17-2.44c.07-1.64.05-3.28,0-4.93,0-.83-.1-1.66-.17-2.49s-.16-1.66-.25-2.5l-.27-2.5,0-.32,0-.31-.09-.62L332,276.8l-.17-1.25-.08-.63,0-.31-.05-.31-.41-2.49c-.25-1.66-.59-3.31-.9-5l-.12-.62-.06-.31-.07-.31-.26-1.23-.54-2.47c-.19-.82-.39-1.64-.59-2.45l-.29-1.23-.15-.62-.16-.61-.65-2.44c-.11-.4-.21-.81-.33-1.22l-.35-1.21-.71-2.42-.75-2.42-.37-1.2-.1-.3-.1-.3-.2-.6-.8-2.4c-.13-.4-.27-.8-.41-1.19l-.42-1.2c-.29-.79-.56-1.59-.86-2.37l-.89-2.37-.46-1.18-.47-1.17c-.6-1.57-1.27-3.12-1.91-4.68s-1.33-3.1-2-4.63-1.41-3.06-2.13-4.59l-1.11-2.27-1.14-2.26q-2.3-4.5-4.81-8.89c-.84-1.45-1.69-2.91-2.57-4.34l-.67-1.07c-.22-.35-.44-.71-.67-1.06s-.45-.7-.68-1.05l-.68-1,1.17.74-8.35-1.4c-2.79-.46-5.59-.85-8.38-1.28s-5.56-1-8.32-1.58c-1.38-.32-2.75-.68-4.11-1.09q-1-.3-2-.66c-.67-.24-1.35-.49-2-.78a.62.62,0,0,1,.2-1.18c.72-.06,1.44-.08,2.16-.08s1.43,0,2.14,0c1.42.06,2.83.17,4.24.32q4.21.47,8.38,1.23c2.78.5,5.55,1,8.33,1.52l8.35,1.41h0a1.77,1.77,0,0,1,1.17.74c.26.38.49.74.73,1.1s.48.72.71,1.09l.69,1.09c.23.37.46.73.68,1.1.9,1.46,1.77,2.94,2.63,4.43q2.56,4.46,4.9,9t4.45,9.27c.71,1.56,1.38,3.14,2.07,4.71s1.33,3.16,2,4.75l.47,1.2c.16.4.32.8.46,1.2l.91,2.4c.31.8.58,1.62.87,2.42l.43,1.21c.15.41.29.81.42,1.22l.82,2.44.2.61.1.3.1.31.38,1.23.77,2.45.71,2.48.36,1.23c.12.41.22.83.34,1.24l.66,2.49.16.62.15.63.31,1.25.6,2.5.54,2.52.27,1.26.07.31.06.32.12.63c.32,1.69.67,3.37.93,5.07l.42,2.54,0,.32,0,.32.09.64.17,1.27.18,1.28.09.64,0,.32,0,.32.27,2.56c.09.86.2,1.7.27,2.57s.13,1.74.17,2.61c.09,1.74.11,3.5,0,5.26,0,.88-.11,1.76-.19,2.65s-.21,1.77-.36,2.65a28.19,28.19,0,0,1-1.43,5.25c-.16.44-.36.86-.54,1.29l-.31.62-.16.32-.17.3-.18.31c-.06.1-.11.21-.18.31l-.38.6c-.06.1-.13.19-.2.29l-.21.29-.21.29a3.11,3.11,0,0,1-.23.28l-.46.56-.49.52c-.17.18-.35.34-.52.51l-.27.25-.13.12-.15.11-.57.46a2.78,2.78,0,0,1-.31.23l-.16.11-.17.11a7.39,7.39,0,0,1-1.49.74,7.6,7.6,0,0,1-1.58.39,12.88,12.88,0,0,1-1.48.13c-.94,0-1.81,0-2.67,0l-2.53-.09-2.49,0q-2.49,0-5,.18l-1.24.09-1.25.12c-.87.09-1.75.16-2.65.19-.45,0-.9,0-1.35,0s-.92,0-1.39-.05a14,14,0,0,1-2.86-.45,9.79,9.79,0,0,1-1.5-.55,6,6,0,0,1-1.48-1l-.18-.16-.17-.17a3.57,3.57,0,0,1-.31-.37l-.27-.37-.23-.39a6.91,6.91,0,0,1-.63-1.6,1.17,1.17,0,0,1-.05-.2l0-.19c0-.14-.06-.27-.08-.4s-.07-.52-.09-.78a12.4,12.4,0,0,1,0-1.49,18,18,0,0,1,.38-2.81,25.16,25.16,0,0,1,.72-2.65c.14-.43.29-.86.45-1.28.07-.21.16-.42.24-.63l.14-.32.07-.16.07-.18,1.35,2.51H299l-.08,0-.14,0-.24-.07-.44-.17a1.33,1.33,0,0,1-.21-.09l-.21-.09-.2-.1-.19-.11a7.23,7.23,0,0,1-1.38-1,8.76,8.76,0,0,1-1.91-2.67,2.83,2.83,0,0,1-.16-.36l-.15-.36a7.09,7.09,0,0,1-.26-.73l-.12-.37,0-.09,0-.11-.05-.22a6.83,6.83,0,0,1-.14-.87l0-.41v-.82l0-.39,0-.2,0-.19,0-.38c0-.24.08-.49.13-.74a20.24,20.24,0,0,1,.75-2.78c.3-.89.64-1.75,1-2.59s.76-1.67,1.18-2.49c.21-.4.42-.81.64-1.21.11-.2.22-.4.34-.6l.17-.3.19-.31-.26.87c0-1.13.05-2.28.07-3.42l0-1.73V271.4c0-1.15,0-2.29,0-3.44s0-2.3,0-3.45c-.06-4.59-.26-9.18-.51-13.76l-.2-3.43-.05-.86c0-.29,0-.57-.05-.86l-.11-1.71c-.08-1.15-.12-2.29-.21-3.43s-.16-2.29-.23-3.43c0-.29,0-.57-.07-.85l-.06-.86-.12-1.71,0-.86c0-.29,0-.57-.05-.86-.05-.57-.08-1.14-.12-1.71l-.09-1.72,0-.87-.05-.86c-.07-1.14-.12-2.3-.11-3.47v0a.6.6,0,0,1,.61-.6A.6.6,0,0,1,296.45,223Z"/><g class="cls-3"><path class="cls-4" d="M310,207.21c-.83.71-1.69,1.4-2.56,2.07a63.91,63.91,0,0,1-80.4-2.1q1.47-5.24,2.72-10.45c9.82-22.64,69.14-13.52,72.11-6.22.89,2.19,1.76,4.68,2.58,7.4C305.67,199.72,307.64,202.89,310,207.21Z"/></g><path class="cls-2" d="M331,167.25h0a1.3,1.3,0,0,1-1.34-1.26l-1-37.49a1.31,1.31,0,0,1,1.27-1.34h0a13.65,13.65,0,0,1,14,13.31l.33,12.78A13.65,13.65,0,0,1,331,167.25Z"/><path class="cls-4" d="M330.92,167.58A1.63,1.63,0,0,1,329.3,166l-1-37.49a1.62,1.62,0,0,1,.44-1.16,1.64,1.64,0,0,1,1.14-.5,14,14,0,0,1,14.33,13.62l.33,12.78A14,14,0,0,1,331,167.58h0Zm0-.65v0a13.35,13.35,0,0,0,13-13.67l-.33-12.79a13.35,13.35,0,0,0-13.67-13,1,1,0,0,0-.69.31,1,1,0,0,0-.27.7l1,37.49A1,1,0,0,0,331,166.93Z"/><g class="cls-3"><path class="cls-4" d="M344.11,147.25l.15,6a13.67,13.67,0,0,1-13.31,14,1.31,1.31,0,0,1-1.33-1.27l-.26-10a1.3,1.3,0,0,0,1.2.74l.89,0A13.68,13.68,0,0,0,344.11,147.25Z"/></g><path class="cls-4" d="M330.92,169.05a3.1,3.1,0,0,1-3.09-3l-1-37.49a3.09,3.09,0,0,1,3-3.17,15.44,15.44,0,0,1,15.84,15l.33,12.78A15.45,15.45,0,0,1,331,169.05h-.08Zm-.46-40.1.94,36.49a11.87,11.87,0,0,0,11.07-12.14l-.33-12.79A11.86,11.86,0,0,0,330.46,129Z"/><path class="cls-2" d="M206.18,130.33h0a1.31,1.31,0,0,1,1.34,1.27l1,37.49a1.31,1.31,0,0,1-1.27,1.34h0a13.66,13.66,0,0,1-14-13.31l-.33-12.78A13.67,13.67,0,0,1,206.18,130.33Z"/><path class="cls-4" d="M206.85,170.75a14,14,0,0,1-14-13.62l-.33-12.78A14,14,0,0,1,206.18,130h0a1.63,1.63,0,0,1,1.66,1.58l1,37.49a1.64,1.64,0,0,1-1.58,1.67Zm-.67-40.42v.33a13.34,13.34,0,0,0-13,13.67l.33,12.78a13.34,13.34,0,0,0,13.67,13,1,1,0,0,0,1-1l-1-37.49a1,1,0,0,0-.31-.69,1,1,0,0,0-.7-.26Z"/><g class="cls-3"><path class="cls-4" d="M208.22,158.69l.26,10.4a1.31,1.31,0,0,1-1.27,1.34,13.67,13.67,0,0,1-14-13.31l-.14-5.38a13.67,13.67,0,0,0,12.64,7.7l1.37,0A1.32,1.32,0,0,0,208.22,158.69Z"/></g><path class="cls-4" d="M206.85,172.22a15.45,15.45,0,0,1-15.43-15.05l-.33-12.79a15.47,15.47,0,0,1,15-15.84h0a3.1,3.1,0,0,1,3.17,3l1,37.49a3.11,3.11,0,0,1-3,3.17Zm-1.11-40.07a11.88,11.88,0,0,0-11.07,12.14l.33,12.79a11.88,11.88,0,0,0,11.67,11.56Zm.44-1.82,0,1.8h0Z"/><circle class="cls-2" cx="268.58" cy="148.79" r="63.91"/><path class="cls-4" d="M268.65,213c-1,0-2,0-3-.06a64.27,64.27,0,1,1,67.07-61.25l-.32,0,.32,0A64.15,64.15,0,0,1,268.65,213Zm-.14-127.81a63.58,63.58,0,0,0-2.82,127.1c1,.05,2,.07,3,.07a63.59,63.59,0,0,0,2.81-127.11C270.47,85.23,269.49,85.21,268.51,85.21Z"/><g class="cls-3"><path class="cls-4" d="M332.21,142.83a65.16,65.16,0,0,1,.21,8.86,63.91,63.91,0,1,1-127.69-5.79q.08-1.53.21-3a63.91,63.91,0,0,0,127.27,0Z"/></g><path class="cls-4" d="M268.65,214.49c-1,0-2,0-3-.07a65.73,65.73,0,1,1,68.61-62.65l-1.79-.08,1.79.08a65.62,65.62,0,0,1-65.56,62.72Zm-.14-127.81a62.11,62.11,0,0,0-2.75,124.16c1,0,1.93.07,2.88.07a62.12,62.12,0,0,0,2.75-124.17Q270,86.68,268.51,86.68Z"/><path class="cls-4" d="M268.65,214.49c-1,0-2,0-3-.07a65.73,65.73,0,1,1,68.61-62.65l-1.79-.08,1.79.08a65.62,65.62,0,0,1-65.56,62.72Zm-.14-127.81a62.11,62.11,0,0,0-2.75,124.16c1,0,1.93.07,2.88.07a62.12,62.12,0,0,0,2.75-124.17Q270,86.68,268.51,86.68Z"/><path class="cls-4" d="M332.4,152.36a57.32,57.32,0,0,1-12,33.37c-5.42,7.05-27.19,19-53.6,18.43-24.49-.52-46.38-14.25-51.36-21.6a57.3,57.3,0,0,1-10-34c1-33.08,29.84-45.93,64.9-44.87S333.4,119.28,332.4,152.36Z"/><path class="cls-4" d="M268.34,206.47l-1.85,0A82.64,82.64,0,0,1,233,198.08c-8.6-4.15-16-9.57-18.89-13.82a58.53,58.53,0,0,1-10.2-34.82,45.48,45.48,0,0,1,5.81-21.74,41.67,41.67,0,0,1,14.49-14.58c11.36-7,27.25-10.4,46-9.83s34.35,4.92,45.27,12.59A41.8,41.8,0,0,1,329,131.31a45.57,45.57,0,0,1,4.48,22.05,58.52,58.52,0,0,1-12.29,34.14c-3.19,4.15-10.65,8.93-19.48,12.49A90.13,90.13,0,0,1,268.34,206.47Zm-2.21-100.6c-16.48,0-30.45,3.26-40.58,9.5-12.18,7.5-18.59,19-19.05,34.15a56,56,0,0,0,9.75,33.26c2,2.95,7.88,8.1,17.85,12.91a79.93,79.93,0,0,0,32.45,8.11,87.28,87.28,0,0,0,34.15-6.27c10.07-4.06,16.19-8.81,18.37-11.64a56,56,0,0,0,11.75-32.61l1.32,0-1.32,0c.45-15.16-5.25-27-16.95-35.24-10.49-7.37-25.65-11.56-43.83-12.11C268.72,105.89,267.42,105.87,266.13,105.87Z"/><g class="cls-12"><ellipse class="cls-2" cx="311.64" cy="148.2" rx="11.31" ry="8.19" transform="translate(101.87 422.21) rotate(-78)"/></g><g class="cls-12"><ellipse class="cls-2" cx="300.93" cy="170.29" rx="5.19" ry="4.45" transform="translate(38.2 395.08) rotate(-70.05)"/></g><g class="cls-3"><path class="cls-13" d="M320.73,122.09c7.53,7.64,11.81,17.94,11.41,31.23a57.32,57.32,0,0,1-12,33.37c-5.42,7.05-27.19,19-53.6,18.44a78.73,78.73,0,0,1-26.06-5.27c32.49,0,59-14.67,65.73-23.41a72.71,72.71,0,0,0,15.25-42.35A64.73,64.73,0,0,0,320.73,122.09Z"/></g><path class="cls-4" d="M327.56,125.74a1.59,1.59,0,0,1-1.06-.4l-.15-.14-.12-.18c-10.31-15.42-30.85-24.71-56.36-25.48s-46.7,7.53-57.76,22.8l0,.06-.07.07a1.58,1.58,0,0,1-2.43-2,50.36,50.36,0,0,1,11-11,61.26,61.26,0,0,1,14.2-7.68,80.19,80.19,0,0,1,16.69-4.38A103,103,0,0,1,270,96.36c12.66.39,24.64,2.93,34.63,7.37A63.48,63.48,0,0,1,318.41,112a50.16,50.16,0,0,1,10.41,11.19,1.59,1.59,0,0,1-.08,2A1.54,1.54,0,0,1,327.56,125.74Zm-116.83-4.4.09.08Z"/><g class="cls-12"><path class="cls-2" d="M218.84,169.59s-9.26-32.94,8.72-45.41,43.28-11.66,42.64-10.05c0,0-28.21,5.93-39.84,27.74C221.39,158.69,218.84,169.59,218.84,169.59Z"/></g><path class="cls-4" d="M298.75,251.14a1.32,1.32,0,0,1-.51-2.54,56.53,56.53,0,0,1,10.46-2.95,42.62,42.62,0,0,1,9.69-.74,23.51,23.51,0,0,1,9.84,2.46,1.32,1.32,0,1,1-1.23,2.34c-5.5-2.89-12.7-2.39-17.78-1.47a57.65,57.65,0,0,0-10,2.8A1.24,1.24,0,0,1,298.75,251.14Z"/><path class="cls-4" d="M301.86,289.37c0,.19.05.35.07.52s0,.34.05.51c0,.34.06.68.07,1a20.45,20.45,0,0,1,0,2.07,15.78,15.78,0,0,1-.26,2.11,11.14,11.14,0,0,1-.7,2.14h0a1.33,1.33,0,0,1-2.41-1.11,1.28,1.28,0,0,1,.11-.2,7.47,7.47,0,0,0,.78-1.49,15.16,15.16,0,0,0,.53-1.73c.13-.61.24-1.23.32-1.86,0-.31.07-.63.09-.94l0-.48c0-.15,0-.32,0-.46v0a.66.66,0,0,1,1.32-.08Z"/><path class="cls-4" d="M181,262.45a4.66,4.66,0,0,0-1.18-.31c-.4-.05-.82-.08-1.23-.09s-.84,0-1.26.05-.83.08-1.25.13c-.84.11-1.67.27-2.5.44l-1.24.28-.61.15-.6.17a1,1,0,0,1-1.18-.64,1.1,1.1,0,0,1,0-.31v-.68l0-.54c0-.36,0-.71,0-1.07a17.89,17.89,0,0,0-.15-2.1c0-.34-.11-.67-.18-1a5.43,5.43,0,0,0-.28-.86,1.57,1.57,0,0,0-.32-.53s-.08-.05-.09,0,0,0,0,0h-.17l-.14,0-.15.05a3.32,3.32,0,0,0-.67.35,5.57,5.57,0,0,0-1.28,1.16,7.74,7.74,0,0,0-1,1.53,8.69,8.69,0,0,0-.6,1.76,3.41,3.41,0,0,0-.1.46l0,.23a2,2,0,0,0,0,.24l0,.23,0,.24,0,.12v.3a4,4,0,0,0,.25,1.5c.05.12.09.24.14.37l.1.18a1.51,1.51,0,0,0,.09.18c.07.12.13.24.21.36l.12.18.13.17a9.1,9.1,0,0,0,1.23,1.35,16.5,16.5,0,0,0,3.25,2.26l.44.24.43.21,0,0h0l.13,0,.25.1.5.2,1,.39,1,.36h0a1.79,1.79,0,0,1-1,3.44c-.41-.09-.79-.2-1.16-.31l-1.11-.34-.55-.18-.27-.09-.14-.05-.08,0-.06,0-.08,0-.58-.26-.56-.26c-.37-.18-.73-.38-1.08-.59s-.71-.42-1.05-.65a17,17,0,0,1-2-1.56,12.76,12.76,0,0,1-1.74-2,9,9,0,0,1-1.27-2.52,7.71,7.71,0,0,1-.33-2.91l0-.36v-.17l0-.16.05-.32.06-.31c0-.11,0-.21.07-.32l.07-.31c.05-.21.12-.42.18-.62a11.09,11.09,0,0,1,2.6-4.54,8.65,8.65,0,0,1,2.18-1.67,6.28,6.28,0,0,1,1.38-.53l.39-.09.41,0h.46l.23,0,.26,0a3.1,3.1,0,0,1,1,.41,3,3,0,0,1,.75.69,4.41,4.41,0,0,1,.73,1.43,9.94,9.94,0,0,1,.37,2.55,20.55,20.55,0,0,1-.08,2.37c0,.39-.07.78-.12,1.16,0,.19,0,.39-.08.58l-.05.29-.05.3-1.21-1.11.67-.1.66-.08c.44-.05.88-.1,1.32-.13s.88-.07,1.33-.08.88,0,1.33,0a17.14,17.14,0,0,1,2.67.2,9.74,9.74,0,0,1,1.32.31,5,5,0,0,1,1.26.58.26.26,0,0,1-.25.45Z"/></svg>