<svg id="Layer_1" data-name="Layer 1" xmlns="http://www.w3.org/2000/svg" xmlns:xlink="http://www.w3.org/1999/xlink" viewBox="0 0 467 467"><defs><style>.cls-1{fill:url(#linear-gradient);}.cls-2{fill:#fff;}.cls-3{opacity:0.35;}.cls-4{fill:#371a45;}.cls-5{fill:#22a7f0;}.cls-6{fill:#220f2d;}.cls-7{opacity:0.7;}.cls-8{fill:#ffe266;}.cls-9{fill:#3e8dff;}.cls-10{opacity:0.3;}.cls-11{fill:#6b184e;}.cls-12{fill:#db2c2c;}</style><linearGradient id="linear-gradient" x1="20.7" y1="233.5" x2="446.3" y2="233.5" gradientUnits="userSpaceOnUse"><stop offset="0" stop-color="#8d00dd"/><stop offset="1" stop-color="#26013d"/></linearGradient></defs><path class="cls-1" d="M446.08,292.36c-.78-8.5-3.63-17.05-7.28-24.8-13.81-29.27-38-52.05-57.87-77.62-22.49-29-40.19-62.71-69.38-85-35.05-26.73-81-32.84-123-46.06-18.53-5.82-36.75-13.2-56-15.69s-40.33.58-54.87,13.45c-10.33,9.14-16.3,22.15-21.24,35-12.11,31.58-19.73,64.66-25.73,97.88-5.87,32.55-11.72,65.29-9.45,98.5a186.13,186.13,0,0,0,11,52.67C44.28,373,68,401.82,99.79,415.18c30.1,12.65,64.3,10.63,96.48,5.06,48.8-8.46,96-24.54,141.72-43.61,25.68-10.71,51-22.39,75.16-36.18,12-6.84,24.37-14.94,30-27.57A41,41,0,0,0,446.08,292.36Z"/><path class="cls-2" d="M187.84,205.85s-28.55-2.19-37,3.63c-15.14,10.47-19.38,67.18-7.63,87.28,8.63,14.75,61.51,7.13,61.51,7.13"/><g class="cls-3"><path class="cls-4" d="M143.26,296.76c8.63,14.75,61.51,7.13,61.51,7.13l-4.64-26.84c-11.5,1.36-51,5-58.36-7.54-2.29-3.92-4-9.24-5.08-15.32C135.86,270.75,137.89,287.58,143.26,296.76Z"/></g><path class="cls-4" d="M176.56,307.51h.7a228.75,228.75,0,0,0,27.74-2,1.65,1.65,0,0,0-.47-3.27c-14.4,2.07-53.23,5-59.84-6.34-11.54-19.73-6.87-75.39,7.14-85.09,6.49-4.49,28.1-3.93,35.88-3.33a1.66,1.66,0,0,0,.26-3.3c-1.19-.09-29.24-2.16-38,3.92-7.44,5.15-12.9,20.57-14.6,41.25-1.3,15.73-.27,36.66,6.49,48.22C145.69,304.17,157.37,307.51,176.56,307.51Z"/><path class="cls-2" d="M138.06,256.16l14.66,1.14a2.88,2.88,0,0,1,2.62,2.36c.84,4.73,2.23,15.77-2.38,19.4-3.83,3-10,2.65-13.66-.44-4.05-3.45-4.43-14.27-4.35-19.62A2.9,2.9,0,0,1,138.06,256.16Z"/><g class="cls-3"><path class="cls-4" d="M155.34,259.66c.85,4.73,2.23,15.77-2.38,19.4-3.83,3-10,2.65-13.66-.44-2.49-2.12-3.59-7-4.05-11.74a12.3,12.3,0,0,0,3,5.52c7.38,7.2,12.92-1.26,12.92-1.26s1,2.06,1.71,2.18c3.19.5,2.55-9.5,2.1-14.66A2.9,2.9,0,0,1,155.34,259.66Z"/></g><path class="cls-4" d="M138.23,279.88c-4.27-3.64-5-13.38-4.93-20.91a4.54,4.54,0,0,1,4.89-4.45l14.66,1.13a4.53,4.53,0,0,1,4.11,3.72c1.09,6.1,2.16,16.94-3,21a12.06,12.06,0,0,1-7.46,2.43A12.9,12.9,0,0,1,138.23,279.88Zm-.3-22.07a1.24,1.24,0,0,0-.93.32,1.25,1.25,0,0,0-.4.89c-.13,9.36,1.28,16.22,3.77,18.34,3.15,2.68,8.45,2.86,11.57.4,2.72-2.14,3.38-8.8,1.77-17.81a1.2,1.2,0,0,0-1.11-1l-14.67-1.14Z"/><path class="cls-4" d="M146.33,282.41a6,6,0,0,0,.7-.47c.2-.15.39-.31.57-.47a9.69,9.69,0,0,0,1-1,12.23,12.23,0,0,0,1.57-2.31A15.66,15.66,0,0,0,151.8,273a21.18,21.18,0,0,0,.21-2.62c.05-.88,0-1.72,0-2.58s-.11-1.71-.22-2.56a13.18,13.18,0,0,0-.57-2.58.43.43,0,0,0-.55-.26.43.43,0,0,0-.28.51V263a12.74,12.74,0,0,1,.27,2.38c0,.81,0,1.64,0,2.46a26,26,0,0,1-.65,4.82,13.55,13.55,0,0,1-1.86,4.27,10,10,0,0,1-1.44,1.72,6.75,6.75,0,0,1-.83.69,4,4,0,0,1-.43.29,2,2,0,0,1-.36.2,1.47,1.47,0,0,0,.86,2.82,1.28,1.28,0,0,0,.29-.13Z"/><path class="cls-4" d="M170.64,216.12a1.66,1.66,0,0,0,.69-3.16c-13.39-6.13-21.6-4.3-21.94-4.22a1.65,1.65,0,0,0,.75,3.22c.11,0,7.58-1.6,19.81,4A1.68,1.68,0,0,0,170.64,216.12Z"/><path class="cls-2" d="M246.24,216.28s13.11,39.37,49.1,52.08v24.15h-49.1Z"/><path class="cls-2" d="M246.24,216.28v76.23h49.1V268.36C259.35,255.65,246.24,216.28,246.24,216.28Z"/><g class="cls-3"><path class="cls-4" d="M246.24,231.68v60.83h43.33C257.94,276.8,246.24,231.68,246.24,231.68Z"/></g><path class="cls-4" d="M244.59,206.13l3.22,9.63c.13.39,13.3,38.76,48.08,51l1.1.39v27h-52.4Zm49.1,63.39c-18.4-6.86-30.67-20.61-37.76-31a107.29,107.29,0,0,1-8-14v66.37h45.8Z"/><path class="cls-2" d="M154.22,292.51h107s-5.89-29.62-11.24-61.59c-.83-4.95-1.65-10-2.43-14.93-6.5-41.46-68.51-14.42-68.51-14.42a78.24,78.24,0,0,0-5.76,9.85C166.38,224.94,155.58,252.25,154.22,292.51Z"/><path class="cls-4" d="M152.57,292.45c1.05-31.07,7.8-54.35,13.28-68.4,6-15.3,11.61-23.13,11.85-23.46l.26-.36.41-.18c1.51-.65,37.11-15.94,57.58-4.7,7.29,4,11.74,10.86,13.23,20.39,5.74,36.55,13.58,76.05,13.66,76.45l.39,2H152.51Zm93.35-76.2c-1.33-8.47-5.21-14.52-11.55-18-17.92-9.85-50.19,3-54.25,4.65-2.46,3.62-22,34-24.19,88H259.21C257.55,282.4,250.94,248.2,245.92,216.25Z"/><g class="cls-3"><path class="cls-4" d="M210.54,297c.17.9.33,1.78.47,2.64C210.87,298.77,210.72,297.89,210.54,297Z"/></g><g class="cls-3"><path class="cls-4" d="M251.34,257.63c1,9,1.59,16.84,1.71,23.36A151.91,151.91,0,0,0,251.34,257.63Z"/></g><circle class="cls-2" cx="256.26" cy="270.87" r="7.68"/><g class="cls-3"><path class="cls-4" d="M263.93,271.07a7.68,7.68,0,1,1-15.35-.4,7.59,7.59,0,0,1,.82-3.26,7.68,7.68,0,0,0,13.88.36A7.61,7.61,0,0,1,263.93,271.07Z"/></g><path class="cls-4" d="M256,279.9a9,9,0,1,1,6.79-15.24,8.93,8.93,0,0,1,2.47,6.45h0a9,9,0,0,1-9,8.79Zm-4.12-13.61a6.32,6.32,0,1,0,4.52-1.74h-.17A6.28,6.28,0,0,0,251.9,266.29Z"/><g class="cls-3"><path class="cls-4" d="M252.54,278.36a118.2,118.2,0,0,1-1.2-23.73,121.64,121.64,0,0,0,1.25,12.91,67.59,67.59,0,0,1,.55,16.16C253,281.9,252.8,280.11,252.54,278.36Z"/></g><path class="cls-2" d="M245.15,293.22l-40.09,2.06a8.67,8.67,0,0,1-9.08-8.19l-1.09-21.33a8.66,8.66,0,0,1,6.47-8.81,8.12,8.12,0,0,1,1.72-.27l40.08-2.06a8.66,8.66,0,0,1,9.07,8.19l.88,16.9.23,4.44A8.67,8.67,0,0,1,245.15,293.22Z"/><g class="cls-3"><path class="cls-4" d="M245.15,293.22l-40.09,2.06a8.67,8.67,0,0,1-9.08-8.19l-1.09-21.33a8.66,8.66,0,0,1,6.47-8.81l3.85,2.28c2.83,17,8.15,25.32,29.43,24.57,9.19-.32,14.91-2,18.47-4.09l.23,4.44A8.67,8.67,0,0,1,245.15,293.22Z"/></g><path class="cls-4" d="M197.73,294.29a10.21,10.21,0,0,1-3.39-7.11l-1.1-21.34A10.31,10.31,0,0,1,203,255L243.08,253a10.32,10.32,0,0,1,10.81,9.75L255,284.06a10.31,10.31,0,0,1-9.75,10.81l-40.08,2.06h0l-.54,0A10.25,10.25,0,0,1,197.73,294.29Zm7.25-.66,40.08-2.06a6.93,6.93,0,0,0,4.83-2.3,7,7,0,0,0,1.8-5l-1.1-21.34a7,7,0,0,0-2.31-4.82,6.9,6.9,0,0,0-5-1.8l-40.09,2.06a7,7,0,0,0-6.62,7.34L197.63,287a7,7,0,0,0,7.35,6.62Z"/><path class="cls-2" d="M246.75,293a8.46,8.46,0,0,1-1.6.24l-40.09,2.06a8.67,8.67,0,0,1-8.12-4.67,8.49,8.49,0,0,1-.95-3.52l-.49-9.48-.16-3.12-.45-8.73a8.67,8.67,0,0,1,8.19-9.08l8.66-.44a8.68,8.68,0,0,0-6.6,8.84l.59,11.52.5,9.81a8.68,8.68,0,0,0,9.08,8.19Z"/><g class="cls-3"><path class="cls-4" d="M246.75,293a8.46,8.46,0,0,1-1.6.24l-40.09,2.06a8.66,8.66,0,0,1-9.07-8.19l-.65-12.6c1.12,2.17,3.07,4.81,6,4.95,1.6.08,3.11-1.14,4.41-2.84l.5,9.81a8.68,8.68,0,0,0,9.08,8.19Z"/></g><path class="cls-4" d="M197.73,294.29a10.21,10.21,0,0,1-3.39-7.11l-1.1-21.34A10.32,10.32,0,0,1,203,255l8.66-.44.48,3.25a7,7,0,0,0-5.34,7.15l1.1,21.34a7,7,0,0,0,7.33,6.62l31.44-1.62.5,3.25a9.79,9.79,0,0,1-1.93.29l-40.09,2.06-.54,0A10.22,10.22,0,0,1,197.73,294.29Zm6.86-7.79-1.1-21.34a10.3,10.3,0,0,1,2.25-7l-2.58.13a7,7,0,0,0-6.62,7.34l1.1,21.34h0a7,7,0,0,0,7.33,6.62l2.88-.14A10.2,10.2,0,0,1,204.59,286.5Z"/><path class="cls-5" d="M221.5,275.11c0,.78-.78,7.21-.78,7.21l-4.5.2c-3.09.14-5.75-2.95-5.93-6.9s2.18-7.28,5.28-7.42l4.5-.2S221.44,273.82,221.5,275.11Z"/><g class="cls-3"><path class="cls-4" d="M221.5,275.11c0,.78-.78,7.21-.78,7.21l-4.5.2c-3.09.14-5.75-2.95-5.93-6.9s2.18-7.28,5.28-7.42l4.5-.2S221.44,273.82,221.5,275.11Z"/></g><path class="cls-4" d="M209.05,275.67a9.53,9.53,0,0,1,1.64-5.91,6.29,6.29,0,0,1,4.82-2.8l3.14-.14a2.88,2.88,0,0,1,2.93,2.23,49.21,49.21,0,0,1,1.16,6,54.29,54.29,0,0,1-.62,6.05,2.87,2.87,0,0,1-2.72,2.52l-3.12.14H216C212.36,283.76,209.26,280.2,209.05,275.67Zm10.12-6.07a.4.4,0,0,0-.4-.3l-3.14.14a3.82,3.82,0,0,0-2.92,1.76,6.91,6.91,0,0,0-1.18,4.36c.15,3.27,2.21,5.83,4.64,5.72l3.12-.14a.39.39,0,0,0,.37-.34c.59-4.75.61-5.53.61-5.64A52.41,52.41,0,0,0,219.17,269.6Zm2.33,5.51Z"/><ellipse class="cls-5" cx="220.39" cy="275.16" rx="5.61" ry="7.17" transform="translate(-12.32 10.34) rotate(-2.61)"/><path class="cls-2" d="M214.79,275.41a8.81,8.81,0,0,0,.41,2.33c-.08-3.85,2.25-7,5.29-7.18,2.45-.11,4.62,1.81,5.51,4.58a1.92,1.92,0,0,0,0-.24c-.18-4-2.84-7-5.93-6.9S214.61,271.46,214.79,275.41Z"/><g class="cls-3"><path class="cls-4" d="M214.79,275.41c.18,4,2.83,7,5.93,6.91s5.46-3.47,5.28-7.42a9.12,9.12,0,0,0-.38-2.19c-.77,2.51-2.64,4.31-4.9,4.41-2.49.11-4.7-1.87-5.56-4.71A8.65,8.65,0,0,0,214.79,275.41Z"/></g><path class="cls-4" d="M215.72,281.21a9.87,9.87,0,0,1-.53-11.65,6.25,6.25,0,0,1,4.82-2.8c3.79-.18,7,3.45,7.23,8.08h0c.21,4.63-2.69,8.54-6.46,8.71h-.27A6.31,6.31,0,0,1,215.72,281.21Zm9-6.25c-.15-3.27-2.21-5.84-4.64-5.73a3.84,3.84,0,0,0-2.91,1.76,7.37,7.37,0,0,0,.39,8.6,3.85,3.85,0,0,0,3.06,1.49c2.41-.11,4.25-2.86,4.1-6.12Z"/><path class="cls-4" d="M232.68,295h0a1.24,1.24,0,0,0,1.21-1.27l-.4-14.15,6.66-4.67-1-20a1.25,1.25,0,0,0-1.3-1.18,1.24,1.24,0,0,0-1.17,1.3l.89,18.64L231,278.26l.43,15.48A1.25,1.25,0,0,0,232.68,295Z"/><path class="cls-2" d="M160.08,265.4a11.05,11.05,0,0,0-3.87,7.5c-.19,5.27,3.11,7.41,3.11,7.41s14.42,7.38,37.55,2.47c0,0,6.81-8.6-.78-13.46C196.09,269.32,171.68,272.67,160.08,265.4Z"/><g class="cls-3"><path class="cls-4" d="M156.21,272.91c-.19,5.26,3.11,7.39,3.11,7.39s14.41,7.39,37.55,2.48a14.71,14.71,0,0,0,2.71-6.16l-.18.25c-16.9,3.58-29.16.6-34.52-1.26a8.87,8.87,0,0,1-6.14-8.46s0-.11,0-.16a1.14,1.14,0,0,1,0-.26A10.4,10.4,0,0,0,156.21,272.91Z"/></g><path class="cls-4" d="M158.56,281.78l-.14-.09c-.17-.11-4.08-2.71-3.86-8.85.19-5.25,4.32-8.6,4.5-8.74l.91-.72,1,.62c10.95,6.87,34.67,3.72,34.91,3.68l.6-.08.51.33a8.75,8.75,0,0,1,4.23,6c.82,4.92-2.89,9.68-3.05,9.88l-.37.46-.58.13a77,77,0,0,1-16,1.73C167.28,286.13,159,282,158.56,281.78Zm39.39-7.3a5.26,5.26,0,0,0-2.27-3.44c-3.92.47-24,2.54-35.35-3.59a9,9,0,0,0-2.47,5.51c-.14,3.88,1.93,5.63,2.3,5.92,1.25.59,14.82,6.68,35.74,2.42C196.65,280.18,198.41,277.21,198,274.48Z"/><g class="cls-3"><path class="cls-4" d="M173.28,211.42a62.49,62.49,0,0,0,40.62,24.67c1.18.18,2.36.33,3.55.45a61.46,61.46,0,0,0,18.21-.91,60.92,60.92,0,0,0,9.55-2.71c1-.39,2.08-.8,3.09-1.24.56-.24,1.13-.5,1.68-.76-.83-4.95-1.65-10-2.43-14.93-6.5-41.46-68.51-14.42-68.51-14.42A78.24,78.24,0,0,0,173.28,211.42Z"/></g><path class="cls-2" d="M278.81,198.38a62.08,62.08,0,0,1-22.51,21.87,63.35,63.35,0,0,1-6,3c-1,.44-2,.85-3.08,1.25a63.29,63.29,0,0,1-9.56,2.71,62.33,62.33,0,0,1-18.2.91c-1.19-.12-2.38-.27-3.56-.46a62.36,62.36,0,0,1,6.79-123.91c.73,0,1.47-.06,2.21-.06,2,0,3.94,0,5.88.21a62.87,62.87,0,0,1,25.47,7.9c1.24.7,2.45,1.44,3.64,2.22a61.23,61.23,0,0,1,5.16,3.81,62.36,62.36,0,0,1,13.77,80.57Z"/><path class="cls-4" d="M219.43,228.26c-1.19-.12-2.39-.27-3.56-.45a62.54,62.54,0,0,1,6.8-124.25c.7,0,1.43-.06,2.22-.06,2,0,4,0,5.9.22a62.86,62.86,0,0,1,25.54,7.92c1.25.71,2.48,1.46,3.64,2.23a62.52,62.52,0,0,1-3.59,106.52,63.65,63.65,0,0,1-6,3c-.94.4-2,.81-3.1,1.24a62.12,62.12,0,0,1-9.58,2.72,63.36,63.36,0,0,1-8.31,1.09q-1.92.12-3.87.12C223.48,228.56,221.45,228.46,219.43,228.26Zm64.37-83.87a62,62,0,0,0-18.86-26.45,63.45,63.45,0,0,0-5.15-3.8c-1.16-.76-2.38-1.51-3.63-2.21a62.19,62.19,0,0,0-25.4-7.88c-1.94-.16-3.91-.24-5.87-.22-.79,0-1.51,0-2.21.06a62.2,62.2,0,0,0-6.76,123.59c1.17.18,2.36.33,3.54.45a62.92,62.92,0,0,0,9.89.18,63,63,0,0,0,17.8-3.79c1.14-.43,2.15-.83,3.08-1.24a59.45,59.45,0,0,0,6-3,62.16,62.16,0,0,0,27.59-75.71Z"/><g class="cls-3"><path class="cls-4" d="M167.06,187.72a62.29,62.29,0,0,0,48.83,39.92c1.18.19,2.37.34,3.56.46a62.33,62.33,0,0,0,18.2-.91,63.29,63.29,0,0,0,9.56-2.71c1-.4,2.07-.81,3.08-1.24a64.65,64.65,0,0,0,6-3,62.36,62.36,0,0,0,29.3-37.59,61.86,61.86,0,0,1-21.75,20.65,61.13,61.13,0,0,1-6,3c-1,.44-2,.85-3.08,1.24a60.73,60.73,0,0,1-9.56,2.71,61.36,61.36,0,0,1-18.2.91c-1.19-.12-2.38-.27-3.55-.45A62.37,62.37,0,0,1,173,132.44,62.21,62.21,0,0,0,167.06,187.72Z"/></g><path class="cls-4" d="M219.32,229.37c-1.21-.12-2.43-.28-3.63-.46a63.65,63.65,0,0,1,6.92-126.46c.72,0,1.46-.06,2.26-.06a60,60,0,0,1,6,.22,63.75,63.75,0,0,1,26,8.06c1.27.72,2.52,1.48,3.71,2.27a62.15,62.15,0,0,1,5.26,3.88,63.62,63.62,0,0,1-8.93,104.54,64.57,64.57,0,0,1-6.12,3c-1,.41-2,.83-3.15,1.27a63.49,63.49,0,0,1-9.75,2.76,62.33,62.33,0,0,1-8.46,1.11c-1.3.08-2.62.12-3.94.12Q222.41,229.67,219.32,229.37Zm63.44-84.59a61,61,0,0,0-23.59-29.71c-1.13-.75-2.33-1.48-3.56-2.17a61.3,61.3,0,0,0-24.94-7.74c-1.9-.16-3.85-.23-5.78-.21-.76,0-1.47,0-2.16.06a61.08,61.08,0,0,0-6.64,121.37c1.15.18,2.32.33,3.48.44a59.48,59.48,0,0,0,9.71.17,60.71,60.71,0,0,0,8.12-1.06,61.82,61.82,0,0,0,9.36-2.65c1.12-.42,2.11-.82,3-1.22a63.17,63.17,0,0,0,5.89-2.92,61.08,61.08,0,0,0,27.09-74.36Z"/><path class="cls-4" d="M219.28,229.74c-1.21-.12-2.44-.28-3.64-.46a64,64,0,0,1,7-127.2c.72,0,1.47-.06,2.28-.06,2,0,4,0,6,.22a63.45,63.45,0,0,1,13.56,2.66,65,65,0,0,1,12.59,5.44c1.28.73,2.54,1.5,3.73,2.29a63,63,0,0,1,5.3,3.9,64,64,0,0,1,14.13,82.7h0a63.79,63.79,0,0,1-23.11,22.46,66.55,66.55,0,0,1-6.16,3.06c-1,.42-2,.83-3.17,1.28a65.66,65.66,0,0,1-9.8,2.78,64.93,64.93,0,0,1-8.51,1.11c-1.32.08-2.64.12-4,.12C223.43,230,221.35,229.94,219.28,229.74Zm58.12-32.22A60.7,60.7,0,0,0,259,115.38c-1.13-.74-2.32-1.47-3.54-2.16a60.82,60.82,0,0,0-24.8-7.69c-1.88-.16-3.81-.23-5.74-.21-.76,0-1.45,0-2.14.06A60.71,60.71,0,0,0,216.15,226c1.14.18,2.31.33,3.46.45a61,61,0,0,0,17.72-.89,60.61,60.61,0,0,0,9.29-2.64c1.12-.42,2.11-.81,3-1.21a62.25,62.25,0,0,0,5.84-2.91,60.53,60.53,0,0,0,21.92-21.29Z"/><path class="cls-4" d="M268.85,210.87c-37.72,23.73-86.47,3.15-87-41-.34-30,28.8-53.53,57.66-52,21,1.11,41,11.38,48.21,44.45,0,0,.93,15.13-3.64,25a142,142,0,0,1-10.66,18.6Z"/><path class="cls-6" d="M181.89,169.89c.49,44.13,49.25,64.71,87,41l.93-1c-40.49,5.23-79.33-20.74-80.66-65.36A47.06,47.06,0,0,0,181.89,169.89Z"/><path class="cls-4" d="M191.37,212.07C180,201.23,173.87,186.68,173.68,170c-.17-15.36,6.32-30.15,18.29-41.63,13-12.49,31.06-19.41,48.26-18.5a62.42,62.42,0,0,1,25.57,6.48l.15.08.14.11a64,64,0,0,1-9,105.16,66.55,66.55,0,0,1-6.16,3.06c-1,.42-2,.83-3.17,1.28a65.45,65.45,0,0,1-9.81,2.78l-.26,0c-.87,0-1.74,0-2.61,0C218.5,228.89,202.68,222.83,191.37,212.07Zm55.25,10.86c1.12-.42,2.11-.81,3-1.21a62.25,62.25,0,0,0,5.84-2.91,60.7,60.7,0,0,0,8.65-99.61,59.15,59.15,0,0,0-24.08-6c-16.29-.87-33.41,5.71-45.79,17.58C183,141.59,176.82,155.51,177,170c.18,15.78,5.94,29.52,16.67,39.72,11.23,10.69,27.19,16.48,43.81,15.87A60.4,60.4,0,0,0,246.62,222.93Z"/><path class="cls-4" d="M207.12,215.54c-16.86-9.2-26.66-25.83-26.88-45.63-.16-13.72,5.65-26.92,16.33-37.17,11.63-11.15,27.72-17.31,43.07-16.51,26.71,1.41,43.45,16.81,49.74,45.75l0,.25c0,.64.9,15.67-3.79,25.75a142.44,142.44,0,0,1-10.8,18.85l-4.91,5.32-.18.12A65.53,65.53,0,0,1,235,222.5,58.11,58.11,0,0,1,207.12,215.54Zm65.05-10.68a142.92,142.92,0,0,0,10.45-18.27c4.13-8.87,3.57-22.6,3.5-24-6-27.22-21.65-41.7-46.65-43-14.46-.76-29.63,5.07-40.61,15.6-10,9.61-15.46,22-15.32,34.74.21,18.58,9.38,34.16,25.16,42.77,17.87,9.73,40.49,8.56,59.09-3Z"/><ellipse class="cls-2" cx="170.45" cy="168.34" rx="22.3" ry="16.2" transform="translate(-7.34 328.91) rotate(-86.73)"/><g class="cls-3"><path class="cls-4" d="M168,190.48c8.27,1.3,16-6.26,18.11-17.2a11.78,11.78,0,0,1-5.09.3c-8.86-1.39-19.23-11.88-17.88-24.1.09-.82,4.48-2.18,4.63-3-6.74,1.88-12.3,9.48-13.38,19.31C153.06,178,159.15,189.08,168,190.48Z"/></g><path class="cls-4" d="M167.76,192.11c-9.71-1.53-16.43-13.4-15-26.47h0c.84-7.6,4.19-14.16,9.21-18a14.4,14.4,0,0,1,11.17-3.08c9.7,1.53,16.43,13.41,15,26.48-.84,7.6-4.19,14.15-9.21,18a14.77,14.77,0,0,1-9,3.24A13.9,13.9,0,0,1,167.76,192.11ZM164,150.27c-4.23,3.24-7.2,9.12-7.92,15.73h0c-1.25,11.34,4.23,21.59,12.22,22.85a11.24,11.24,0,0,0,8.65-2.44c4.24-3.24,7.2-9.12,7.93-15.73,1.24-11.34-4.24-21.59-12.23-22.84a9.47,9.47,0,0,0-1.59-.13A11.57,11.57,0,0,0,164,150.27Z"/><ellipse class="cls-2" cx="165.05" cy="169.62" rx="17.7" ry="13.2" transform="translate(-8.28 330.76) rotate(-88.69)"/><path class="cls-4" d="M159.9,186.2c-3.81-2.06-6.63-6.27-7.73-11.56-2-9.44,2.18-19.38,9.27-22.16a10.11,10.11,0,0,1,8.76.56c3.81,2.05,6.63,6.27,7.74,11.55,2,9.44-2.19,19.38-9.27,22.16a10.29,10.29,0,0,1-3.81.75A10.41,10.41,0,0,1,159.9,186.2Zm1.66-33.4c-6.93,2.73-11,12.49-9.06,21.77,1.09,5.19,3.84,9.32,7.56,11.32a9.77,9.77,0,0,0,8.48.54c6.94-2.72,11-12.49,9.06-21.77-1.08-5.18-3.84-9.31-7.56-11.32a9.86,9.86,0,0,0-8.48-.54Z"/><g class="cls-3"><path class="cls-4" d="M176.63,178.43a21,21,0,0,0,1.05-10c-3.26,6.94-10.15,9.17-15.94,4.89-3.73-2.76-6.15-7.6-6.81-12.77-.21.44-.4.9-.58,1.37-3,8-.39,18.18,5.77,22.73S173.66,186.43,176.63,178.43Z"/></g><path class="cls-4" d="M162.85,188.84c-7.64-1.27-12.72-10.87-11.56-21.86.69-6.46,3.51-12.15,7.57-15.23a10.69,10.69,0,0,1,8.36-2.28c7.64,1.26,12.72,10.87,11.56,21.86-.69,6.45-3.52,12.14-7.57,15.23a11.05,11.05,0,0,1-6.72,2.41A10.16,10.16,0,0,1,162.85,188.84Zm-2-34.47c-3.35,2.55-5.69,7.39-6.28,12.95-1,9,3.09,17.31,8.81,18.26a7.52,7.52,0,0,0,5.82-1.65c3.34-2.54,5.69-7.38,6.28-13,.95-8.95-3.09-17.31-8.81-18.25a6.56,6.56,0,0,0-1.08-.09A7.83,7.83,0,0,0,160.86,154.37Z"/><g class="cls-7"><path class="cls-2" d="M224.15,128.05s28.13,3.29,42.8,20.37l.05.05a26.79,26.79,0,0,1,6,12.62,54.61,54.61,0,0,1,.71,14.46c-.82,11.79-3.41,17.17-3.41,17.17,7.14-5.77,11.42-12.58,12.2-22.4q.11-1.45.12-3v-.71h0a63.24,63.24,0,0,0-1-7.88c-1.69-9.22-6-21.4-17-27.68C244.09,119.3,223.26,126.75,224.15,128.05Z"/></g><g class="cls-7"><ellipse class="cls-2" cx="201.14" cy="155.64" rx="9.71" ry="8.33" transform="translate(-11.4 295.31) rotate(-71.04)"/></g><g class="cls-7"><ellipse class="cls-2" cx="195.41" cy="172.33" rx="4.01" ry="3.44" transform="translate(-41.11 281.58) rotate(-66.2)"/></g><path class="cls-4" d="M75.18,285.94C96.32,331.78,158.49,365,231.89,365s135.56-33.21,156.71-79.05Z"/><path class="cls-8" d="M182.68,337l1.95.3a.9.9,0,0,1,.76.75l.3,1.95.3-1.95a.9.9,0,0,1,.76-.75l1.95-.3-1.95-.31A.9.9,0,0,1,186,336l-.3-1.95-.3,1.95a.9.9,0,0,1-.76.75Z"/><path class="cls-8" d="M233,328.35l1.95.3a.9.9,0,0,1,.75.76l.31,1.95.3-1.95a.9.9,0,0,1,.75-.76l1.95-.3-1.95-.3a.9.9,0,0,1-.75-.76l-.3-2-.31,2a.9.9,0,0,1-.75.76Z"/><path class="cls-8" d="M214.28,347.64l2,.31a.9.9,0,0,1,.76.76l.3,2,.31-2a.89.89,0,0,1,.76-.76l2-.31-2-.3a.9.9,0,0,1-.76-.76l-.31-2-.3,2a.91.91,0,0,1-.76.76Z"/><path class="cls-8" d="M125.37,325.49l2.65.41a1.23,1.23,0,0,1,1,1l.41,2.65.41-2.65a1.22,1.22,0,0,1,1-1l2.65-.41-2.65-.41a1.21,1.21,0,0,1-1-1l-.41-2.65-.41,2.65a1.22,1.22,0,0,1-1,1Z"/><path class="cls-8" d="M363.42,294.12l2.3.35a1.08,1.08,0,0,1,.89.9l.35,2.29.36-2.29a1.08,1.08,0,0,1,.89-.9l2.29-.35-2.29-.35a1.07,1.07,0,0,1-.89-.9l-.36-2.29-.35,2.29a1.07,1.07,0,0,1-.89.9Z"/><path class="cls-8" d="M264.33,320.87l2.49.38a1.15,1.15,0,0,1,1,1l.39,2.49.38-2.49a1.17,1.17,0,0,1,1-1l2.48-.38-2.48-.38a1.17,1.17,0,0,1-1-1l-.38-2.49-.39,2.49a1.15,1.15,0,0,1-1,1Z"/><path class="cls-8" d="M154.69,337.65l2.37.37a1.1,1.1,0,0,1,.92.92l.36,2.37.37-2.37a1.08,1.08,0,0,1,.92-.92l2.36-.37-2.36-.36a1.1,1.1,0,0,1-.92-.92l-.37-2.37-.36,2.37a1.13,1.13,0,0,1-.92.92Z"/><path class="cls-8" d="M299,320.29l1.95.3a.91.91,0,0,1,.76.76l.3,1.95.3-1.95a.91.91,0,0,1,.76-.76l1.95-.3-1.95-.3a.91.91,0,0,1-.76-.76l-.3-2-.3,2a.91.91,0,0,1-.76.76Z"/><path class="cls-8" d="M293.89,344.42l1.29-1.49a.93.93,0,0,1,1.05-.24l1.81.79-1.49-1.29a.93.93,0,0,1-.24-1.05l.79-1.81-1.29,1.49a.91.91,0,0,1-1.05.23l-1.81-.78,1.49,1.29a.91.91,0,0,1,.23,1.05Z"/><path class="cls-8" d="M256.92,346.81l2.26.35a1,1,0,0,1,.87.87l.35,2.26.35-2.26a1.05,1.05,0,0,1,.88-.87l2.26-.35-2.26-.35a1.05,1.05,0,0,1-.88-.88l-.35-2.25-.35,2.25a1,1,0,0,1-.87.88Z"/><path class="cls-8" d="M328.13,327.73l1.95.3a.91.91,0,0,1,.76.76l.3,1.95.3-1.95a.91.91,0,0,1,.76-.76l1.95-.3-1.95-.3a.91.91,0,0,1-.76-.76l-.3-1.95-.3,1.95a.91.91,0,0,1-.76.76Z"/><path class="cls-8" d="M96.4,296.3l2.31.36a1.06,1.06,0,0,1,.89.9l.36,2.3.36-2.3a1.06,1.06,0,0,1,.89-.9l2.31-.36-2.31-.35a1.07,1.07,0,0,1-.89-.9l-.36-2.31-.36,2.31a1.07,1.07,0,0,1-.89.9Z"/><polygon class="cls-2" points="143.15 325.63 217.4 325.63 213.64 316.27 208.05 302.37 160.17 302.87 149.16 317.59 143.15 325.63"/><path class="cls-4" d="M159.33,301.23l49.83-.52,10.69,26.57h-80Zm47.61,2.8-45.94.49L146.45,324H215Z"/><path class="cls-4" d="M153.32,320.3c2.29,0,4.58,0,6.87-.06l6.87-.14c2.29,0,4.59-.13,6.87-.19s4.57-.07,6.86-.07c4.57-.06,9.15,0,13.73-.09l6.87-.06c2.29,0,4.58-.06,6.87-.12-2.29-.12-4.58-.19-6.87-.28l-6.87-.16c-4.58-.09-9.16-.1-13.74-.1q-3.43,0-6.87.15c-2.3.09-4.58.17-6.87.3l-6.86.37C157.89,320,155.61,320.12,153.32,320.3Z"/><path class="cls-4" d="M156.38,315.25c2.11,0,4.21,0,6.32,0l6.32-.1c4.21-.07,8.41-.25,12.62-.37l12.61-.43c2.1-.07,4.2-.13,6.3-.08s4.21,0,6.32,0c-4.2-.26-8.41-.57-12.63-.52s-8.42.11-12.63.24-8.42.34-12.62.56l-6.3.32C160.59,315,158.49,315.09,156.38,315.25Z"/><path class="cls-4" d="M159.55,310.89c1.93,0,3.86-.07,5.79-.11l5.79-.19,11.58-.35,11.57-.41c1.93-.07,3.86-.13,5.79-.15s3.86-.11,5.79-.21c-3.87-.14-7.72-.28-11.59-.26s-7.73.1-11.59.22-7.72.29-11.58.54l-5.78.42C163.39,310.56,161.47,310.7,159.55,310.89Z"/><path class="cls-4" d="M162.38,306.71a90.09,90.09,0,0,0,10.52.17c3.51-.07,7-.19,10.51-.3l10.51-.38c1.75-.07,3.5-.14,5.25-.17s3.53,0,5.24-.17l-5.24-.23c-1.75,0-3.51-.05-5.26-.05-3.51,0-7,.09-10.52.19s-7,.27-10.51.49c-1.75.11-3.5.21-5.25.29S164.13,306.75,162.38,306.71Z"/><polygon class="cls-2" points="106.03 314 180.28 314 170.92 290.74 163.76 290.81 123.04 291.25 106.03 314"/><path class="cls-2" d="M223.85,289.75l26.7,24.1s-23.79-1.23-34.84-1.19c-9,0-39.12,2.33-39.12,2.33l-7-24.25Z"/><g class="cls-3"><path class="cls-4" d="M149.16,317.59h26.73l.28,1s26.92-2.06,37.47-2.31l-5.59-13.9-47.88.5Z"/></g><polygon class="cls-2" points="106.03 314 180.28 314 170.92 290.74 163.76 290.81 123.04 291.25 106.03 314"/><path class="cls-4" d="M122.21,289.6l49.83-.52,10.68,26.57h-80Zm47.6,2.8-45.93.49-14.56,19.46h68.51Z"/><path class="cls-4" d="M116.2,308.67c2.29,0,4.58,0,6.87-.06l6.87-.14c2.29,0,4.58-.13,6.86-.19s4.57-.06,6.86-.07c4.58-.06,9.16,0,13.73-.09l6.87-.06c2.29,0,4.58-.06,6.87-.12-2.29-.12-4.58-.19-6.86-.28l-6.87-.16c-4.58-.09-9.16-.1-13.74-.1q-3.45,0-6.88.15c-2.3.09-4.58.17-6.87.3l-6.86.37C120.77,308.37,118.48,308.49,116.2,308.67Z"/><path class="cls-4" d="M119.26,303.62c2.1,0,4.21,0,6.31,0l6.32-.1c4.21-.07,8.41-.25,12.62-.37l12.62-.43c2.1-.07,4.2-.13,6.3-.08s4.21,0,6.31,0c-4.19-.26-8.41-.57-12.62-.52s-8.43.11-12.64.24-8.41.34-12.61.56l-6.31.32C123.46,303.35,121.36,303.46,119.26,303.62Z"/><path class="cls-4" d="M122.42,299.8c1.94,0,3.87-.07,5.8-.1l5.78-.2,11.58-.35,11.57-.41c1.93-.07,3.86-.13,5.79-.15s3.87-.11,5.79-.2c-3.86-.15-7.71-.28-11.59-.27s-7.72.1-11.59.22-7.72.29-11.57.54l-5.79.42C126.27,299.47,124.34,299.61,122.42,299.8Z"/><path class="cls-4" d="M125.25,296.16a90.22,90.22,0,0,0,10.53.17c3.5-.07,7-.19,10.51-.29l10.51-.39c1.75-.07,3.5-.13,5.25-.17s3.53-.05,5.23-.16l-5.23-.24c-1.76,0-3.51-.05-5.27-.05-3.51,0-7,.09-10.52.2s-7,.26-10.51.48c-1.75.11-3.49.21-5.24.29S127,296.21,125.25,296.16Z"/><path class="cls-4" d="M396.26,284.48l-10.17-.18-10.17-.14-20.35-.28-40.69-.34c-13.56-.14-27.13-.15-40.69-.22l-40.69-.06-40.69.06c-13.56.07-27.13.08-40.69.22l-40.69.34-20.35.28-10.17.13-10.17.19a1.46,1.46,0,0,0,0,2.92l10.17.18,10.17.14,20.35.28,40.69.34c13.56.14,27.13.15,40.69.22l40.69.06,40.69-.06c13.56-.08,27.13-.08,40.69-.22l40.69-.34,20.35-.28,10.17-.14,10.17-.18a1.46,1.46,0,0,0,0-2.92Z"/><path class="cls-9" d="M258.71,310.32,235.35,288.6a.45.45,0,0,1-.15-.33v-3.9a.46.46,0,0,1,.49-.46l74.71,4.56,34.68,21.85Z"/><g class="cls-10"><path class="cls-11" d="M235.2,286.46v1.81a.49.49,0,0,0,.15.34l23.36,21.71h86.37l-6.32-4H260.29Z"/></g><path class="cls-4" d="M234.22,289.81a2.14,2.14,0,0,1-.67-1.54v-3.9a2.12,2.12,0,0,1,2.24-2.11l75.14,4.59L350.8,312H258.06Zm75.66.28-73-4.46v2.12l22.51,20.92h80Z"/><polygon class="cls-9" points="258.71 301.14 235.2 283.88 310.4 283.88 345.08 301.14 258.71 301.14"/><polygon class="cls-2" points="264.77 298.96 249.48 287.73 298.4 287.73 320.96 298.96 264.77 298.96"/><path class="cls-4" d="M235.69,285.58a1.54,1.54,0,0,1,.91-2.78h74.06l39,19.42H258.35Zm74.46-.62H238.5l20.56,15.1h81.42Z"/><path class="cls-9" d="M260.93,311.34h98.26a2.3,2.3,0,0,0,1.64-.69,2.34,2.34,0,0,0,.58-1.06l16.53-67.06a4.59,4.59,0,0,0-4.46-5.69H281.76a6.89,6.89,0,0,0-6.57,4.82l-.12.42L258.71,308.5A2.29,2.29,0,0,0,260.93,311.34Z"/><g class="cls-10"><path class="cls-11" d="M260.93,311.34h98.26a2.3,2.3,0,0,0,1.64-.69c-12.05.58-53.92.91-73.91-20.66-12.8-13.81-13-35.45-11.73-48.33l-.12.42L258.71,308.5A2.29,2.29,0,0,0,260.93,311.34Z"/></g><g class="cls-3"><path class="cls-2" d="M372.91,244.54l-16.45,66.8h2.73a2.28,2.28,0,0,0,2.22-1.75l16.53-67.06a4.59,4.59,0,0,0-4.46-5.69H281.76a6.9,6.9,0,0,0-6.63,5,6.4,6.4,0,0,1,.88-.06h94.75A2.21,2.21,0,0,1,372.91,244.54Z"/></g><path class="cls-4" d="M257.83,311.48a3.94,3.94,0,0,1-.73-3.38l16.37-66.42a8.52,8.52,0,0,1,8.29-6.49h91.72a6.23,6.23,0,0,1,6.06,7.73L363,310a3.94,3.94,0,0,1-3.83,3H260.94A3.91,3.91,0,0,1,257.83,311.48Zm23.93-73a5.21,5.21,0,0,0-5.08,4l-16.37,66.42a.66.66,0,0,0,.12.55.63.63,0,0,0,.51.25h98.25a.64.64,0,0,0,.62-.49l16.53-67.07a2.94,2.94,0,0,0-2.86-3.64Z"/><g class="cls-3"><polygon class="cls-4" points="163.76 290.81 170.46 314 180.28 314 170.92 290.74 163.76 290.81"/></g><path class="cls-2" d="M223.85,289.75l26.7,24.1s-23.79-1.23-34.84-1.19c-9,0-39.12,2.33-39.12,2.33l-7-24.25Z"/><path class="cls-4" d="M167.4,289.13l57.08-1,30.63,27.65-4.64-.24c-.24,0-23.89-1.22-34.75-1.19-8.84,0-38.7,2.3-39,2.32l-1.33.11ZM246,312l-22.78-20.56-51.46.93,6,20.89c6-.45,29.93-2.21,37.91-2.23h.42C224.22,311,238.64,311.63,246,312Z"/><path class="cls-4" d="M209.51,290.08a26.43,26.43,0,0,0,2.08,10.46l.57,1.32a1.53,1.53,0,0,0,3,0l.59-1.36a26.32,26.32,0,0,0,2.07-10.36V252.62c0-1.29-1.82-2.34-4.08-2.34s-4.07,1.05-4.07,2.34a1.09,1.09,0,0,0,0,.18Z"/><path class="cls-4" d="M180.94,308.1c2.27,0,4.53-.13,6.79-.19l6.78-.27c4.52-.22,9-.36,13.56-.49s9-.33,13.56-.47c2.27-.08,4.52-.1,6.78-.14s4.53-.11,6.79-.2c-4.52-.15-9-.29-13.58-.28s-9.05.16-13.58.28l-6.78.28c-2.26.1-4.52.22-6.78.4l-6.77.5C185.45,307.71,183.2,307.88,180.94,308.1Z"/><path class="cls-4" d="M178.54,304.1q4.29,0,8.55-.25c1.43-.06,2.85-.14,4.27-.21s2.84-.19,4.26-.24l8.53-.42c2.85-.12,5.69-.29,8.54-.37-2.84-.23-5.7-.28-8.55-.26s-5.71.1-8.56.24-5.69.39-8.53.63S181.38,303.76,178.54,304.1Z"/><path class="cls-2" d="M171.29,216.28s-7.57,16.64-8.84,35.53c-1.3,19.24.58,46.58,45.37,42.87,15.7-1.3,14.94-8,15.52-15.84.73-9.75-.39-20.95-11.78-21.37-20.6-.76-26.75-5.25-29.67-17.87"/><g class="cls-3"><path class="cls-4" d="M162.28,262.54c.87,17.2,8.66,35.19,45.54,32.14,15.71-1.3,14.94-8,15.52-15.84.4-5.34.24-11.11-1.85-15.31,0,1.16-.07,2.32-.16,3.46-.58,7.87.18,14.54-15.52,15.84C177.51,285.17,166.34,275.12,162.28,262.54Z"/></g><path class="cls-4" d="M186.84,248.15c-.34-.71-.75-1.37-1.14-2.05s-.81-1.36-1.21-2.07c-.81-1.43-1.54-2.94-2.41-4.48a.21.21,0,0,0-.28-.07.18.18,0,0,0-.1.16,17.72,17.72,0,0,0,.52,5.27,13.17,13.17,0,0,0,.89,2.56,8.48,8.48,0,0,0,1.54,2.28,1.37,1.37,0,0,0,2.21-1.56Z"/><path class="cls-4" d="M200.07,296.67c2.51,0,5.14-.12,7.89-.34,16-1.33,16.48-8.66,16.92-15.75,0-.53.07-1.07.11-1.62.67-9.11-.63-15.36-4-19.11a12.63,12.63,0,0,0-9.38-4c-13.1-.48-20-2.5-23.85-7a1.65,1.65,0,0,0-2.5,2.15c4.5,5.25,12.1,7.6,26.23,8.12a9.37,9.37,0,0,1,7,2.93c2.73,3.05,3.76,8.5,3.16,16.67,0,.56-.08,1.11-.11,1.66-.44,7-.73,11.56-13.9,12.65-16.44,1.36-28.36-1.47-35.41-8.41-8.64-8.51-8.91-21.94-8.18-32.7,1.24-18.37,8.62-34.79,8.69-34.95a1.65,1.65,0,1,0-3-1.37,116.28,116.28,0,0,0-9,36.1c-.77,11.46-.43,25.82,9.16,35.27C176.51,293.42,186.62,296.67,200.07,296.67Z"/><path class="cls-4" d="M168.59,284.54h.07a1.66,1.66,0,0,0,1.58-1.73c-1.17-27.15,15.58-31.55,16.29-31.73a1.65,1.65,0,0,0-.76-3.21,22.52,22.52,0,0,0-10.06,6.3c-4.37,4.55-9.44,13.23-8.77,28.79A1.66,1.66,0,0,0,168.59,284.54Z"/><path class="cls-4" d="M306.3,268.58A14.47,14.47,0,0,0,310,273.8c.72.64,1.47,1.25,2.2,1.89a.44.44,0,0,1,.11.36,8.54,8.54,0,0,0,1.07,7.22,15.94,15.94,0,0,0,4.18,4.48q1.08.81,2.19,1.56a1.13,1.13,0,0,0,1.86-.76c.43-2.05.83-4.1,1.24-6.15l.1-.43.45.18a1.28,1.28,0,0,0,1.75-.3c.54-.51,1.07-1,1.64-1.59.44.46.86.91,1.3,1.34a1.06,1.06,0,0,0,1.22.22,1,1,0,0,0,.66-1.05,1.7,1.7,0,0,0-.36-.81c-.36-.44-.78-.82-1.2-1.26l1.22-1.17.22-.22a1.49,1.49,0,0,0,.5-2.11.16.16,0,0,1,0-.09s0-.05,0-.09l4.5-.74,1.88-.32a1.13,1.13,0,0,0,.85-1.84,21.94,21.94,0,0,0-4.38-5.49,10.41,10.41,0,0,0-5.75-2.68,6.57,6.57,0,0,0-2.46.18.56.56,0,0,1-.7-.27c-.73-.93-1.44-1.88-2.24-2.75a15.68,15.68,0,0,0-8.12-4.58,21.44,21.44,0,0,0-7.32-.44c-.35,0-.69.14-1,.2l-.34.34a11.13,11.13,0,0,0-.45,3.39A19.47,19.47,0,0,0,306.3,268.58ZM326,266.24a5.65,5.65,0,0,1,3.18.45,14.09,14.09,0,0,1,5.69,5.3l-5.38.89C328.29,270.64,327.13,268.44,326,266.24ZM314.35,277.3l6.51,3.73c-.36,1.8-.74,3.65-1.12,5.53A17.84,17.84,0,0,1,316,283a8.32,8.32,0,0,1-1.69-3.74A4.42,4.42,0,0,1,314.35,277.3Zm-6.66-12.48c.47-.43.92-.88,1.38-1.32,1.53-1.48,3.05-3,4.59-4.43a.53.53,0,0,1,.4-.15,13.71,13.71,0,0,1,7.85,5.49,33.33,33.33,0,0,1,3.37,5.34c1,1.91,1.86,3.84,2.77,5.77a.45.45,0,0,1,0,.39c-.37.39-.78.76-1.2,1.16l-2.64-2.73c-1.17-1.22-2.33-2.43-3.51-3.64a1.13,1.13,0,0,0-1.42-.24,1.12,1.12,0,0,0-.19,1.81l5.84,6.06.28.28a.75.75,0,0,1-.07.12c-.35.33-.7.66-1,1a.33.33,0,0,1-.45.06,54.55,54.55,0,0,1-10.46-6.19,18.35,18.35,0,0,1-3.22-3.13,14,14,0,0,1-2.44-5.2A.4.4,0,0,1,307.69,264.82Zm-.49-6.61,4.45.14a.48.48,0,0,1,0,.12l-4.5,4.35A20.34,20.34,0,0,1,307.2,258.21Z"/><path class="cls-2" d="M307.56,265.27a14,14,0,0,0,2.44,5.2,18.35,18.35,0,0,0,3.22,3.13,54.55,54.55,0,0,0,10.46,6.19.33.33,0,0,0,.45-.06c.33-.34.68-.67,1-1a.75.75,0,0,0,.07-.12l-.28-.28-5.84-6.06a1.12,1.12,0,0,1,.19-1.81,1.13,1.13,0,0,1,1.42.24c1.18,1.21,2.34,2.42,3.51,3.64l2.64,2.73c.42-.4.83-.77,1.2-1.16a.45.45,0,0,0,0-.39c-.91-1.93-1.8-3.86-2.77-5.77a33.33,33.33,0,0,0-3.37-5.34,13.71,13.71,0,0,0-7.85-5.49.53.53,0,0,0-.4.15c-1.54,1.47-3.06,2.95-4.59,4.43-.46.44-.91.89-1.38,1.32A.4.4,0,0,0,307.56,265.27Zm3.72-2.72a3.82,3.82,0,1,1-.12,5.4A3.83,3.83,0,0,1,311.28,262.55Z"/><path class="cls-12" d="M307.15,262.82l4.5-4.35v-.12l-4.45-.14A20.34,20.34,0,0,0,307.15,262.82Z"/><path class="cls-12" d="M326,266.24c1.15,2.2,2.31,4.4,3.49,6.64l5.38-.89a14.09,14.09,0,0,0-5.69-5.3A5.65,5.65,0,0,0,326,266.24Z"/><path class="cls-12" d="M316,283a17.55,17.55,0,0,0,3.76,3.53c.38-1.88.76-3.72,1.12-5.53l-6.51-3.74a4.48,4.48,0,0,0-.07,2A8.23,8.23,0,0,0,316,283Z"/><path class="cls-4" d="M311.16,268a3.84,3.84,0,1,0,.12-5.4A3.85,3.85,0,0,0,311.16,268Zm1.36-4.11a2,2,0,1,1,0,2.88A2,2,0,0,1,312.52,263.84Z"/><path class="cls-5" d="M312.51,266.72a2,2,0,1,0,0-2.88A2,2,0,0,0,312.51,266.72Z"/></svg>